<?xml version="1.0" standalone="no"?>
<!DOCTYPE svg PUBLIC "-//W3C//DTD SVG 20010904//EN"
 "http://www.w3.org/TR/2001/REC-SVG-20010904/DTD/svg10.dtd">
<svg version="1.0" xmlns="http://www.w3.org/2000/svg"
 width="612.000000pt" height="612.000000pt" viewBox="0 0 612.000000 612.000000"
 preserveAspectRatio="xMidYMid meet">
<metadata>
Created by potrace 1.11, written by Peter Selinger 2001-2013
</metadata>
<g transform="translate(0.000000,612.000000) scale(0.100000,-0.100000)"
fill="#000000" stroke="none">
<path d="M412 6010 l-234 -5 -23 -29 c-13 -17 -31 -59 -39 -95 -19 -79 -33
-434 -29 -721 2 -183 14 -3821 13 -4256 0 -111 -4 -225 -10 -254 -14 -74 -13
-173 3 -188 7 -8 14 -58 18 -135 7 -141 21 -178 81 -202 25 -10 122 -19 305
-29 342 -19 4571 -33 4743 -15 58 5 225 13 372 17 l268 7 25 27 c14 15 25 35
25 46 0 10 5 23 11 29 21 21 36 302 33 643 -4 478 -9 3938 -6 4040 2 47 0 137
-3 201 -4 66 -1 175 6 255 16 184 17 290 3 287 -8 -1 -13 41 -16 133 -3 77 -9
139 -15 142 -6 4 -14 18 -18 30 -4 14 -22 30 -43 39 -43 19 54 18 -2407 28
-2413 10 -2809 11 -3063 5z m917 -99 c5 -7 14 -10 20 -7 6 4 11 2 11 -3 0 -11
6 -9 57 17 13 7 48 12 79 12 46 0 55 -3 50 -15 -4 -10 1 -15 14 -15 24 0 25
-18 4 -49 -10 -14 -13 -26 -7 -32 11 -11 43 -2 43 12 0 5 5 9 10 9 6 0 10 -6
10 -14 0 -8 8 -13 18 -11 9 2 23 4 30 4 8 1 10 9 6 25 -4 16 -1 25 11 29 12 5
14 11 5 26 -14 27 -1 32 63 25 49 -6 55 -9 51 -28 -2 -11 -13 -29 -25 -38
l-21 -18 22 0 c17 0 21 -5 20 -27 -3 -48 10 -73 37 -73 15 0 22 -4 18 -11 -7
-11 27 -49 43 -49 5 0 15 -6 21 -14 8 -10 6 -19 -9 -38 -21 -28 -60 -43 -60
-25 0 8 -3 9 -8 1 -11 -16 -55 -44 -70 -44 -7 0 -18 14 -23 30 -8 22 -17 30
-35 30 -13 0 -47 9 -75 20 -29 12 -59 18 -66 15 -9 -3 -17 3 -20 14 -4 15 -10
18 -27 12 -38 -15 -84 -5 -112 22 -27 28 -40 32 -68 21 -18 -7 -22 -44 -5 -44
8 0 8 -4 1 -13 -6 -7 -8 -24 -5 -37 6 -22 7 -23 14 -4 7 17 8 17 8 1 1 -10 13
-33 28 -52 24 -30 28 -32 39 -17 11 15 12 15 11 -3 -1 -14 5 -21 21 -23 12 -2
22 -7 22 -11 0 -5 27 -14 60 -20 40 -8 60 -17 60 -27 0 -7 9 -14 20 -14 11 0
20 -6 20 -13 0 -7 -9 -13 -20 -13 -11 0 -20 4 -20 9 0 4 -5 5 -10 2 -5 -3 -10
-15 -10 -25 0 -11 -14 -25 -37 -37 -38 -18 -39 -20 -42 -90 -1 -16 -7 -23 -21
-23 -24 0 -25 -6 -5 -26 9 -9 23 -13 35 -9 11 3 20 2 20 -4 0 -9 -60 -33 -76
-30 -23 4 -45 -2 -39 -11 3 -5 -7 -12 -22 -16 -74 -16 -266 -112 -327 -163
-17 -15 -47 -38 -66 -53 -107 -79 -198 -202 -297 -399 -18 -36 -49 -62 -123
-101 -36 -19 -83 -47 -104 -62 -74 -50 -256 -251 -256 -282 0 -6 -7 -17 -15
-24 -14 -11 -15 49 -15 557 l1 569 24 48 c14 27 22 52 19 57 -10 17 17 49 59
68 23 11 39 20 35 21 -5 0 2 11 15 25 12 14 30 40 40 58 9 17 17 27 17 22 1
-28 20 27 26 72 8 64 -19 131 -50 125 -10 -2 -16 0 -12 6 7 11 -41 35 -55 27
-5 -4 -9 -1 -9 5 0 7 -8 9 -20 5 -13 -4 -22 -1 -26 10 -5 13 -9 13 -21 3 -14
-11 -15 -8 -9 22 5 25 4 31 -3 20 -5 -8 -14 -11 -18 -6 -4 4 0 13 10 20 9 7
17 18 17 25 0 6 5 11 11 11 16 0 38 31 39 53 0 16 30 17 520 15 430 -3 522 -5
529 -17z m327 -4 c2 -12 -5 -17 -24 -17 -21 0 -24 2 -12 10 8 5 11 10 7 10 -5
0 -5 5 -2 11 9 14 28 6 31 -14z m450 12 c8 -7 14 -7 19 1 8 12 175 14 175 1 0
-13 -81 -78 -181 -144 -81 -53 -111 -67 -108 -49 4 21 -2 42 -10 37 -5 -3 -12
-1 -16 5 -10 16 -22 12 -28 -10 -3 -11 -12 -20 -21 -20 -13 0 -13 4 2 30 9 16
20 30 25 30 4 0 7 8 7 17 0 9 10 27 22 40 12 13 16 23 10 23 -11 0 -17 32 -8
41 10 10 100 8 112 -2z m363 -5 c-16 -19 -50 -34 -63 -26 -12 7 35 42 58 42
16 0 17 -2 5 -16z m380 7 c9 -6 2 -10 -23 -13 -50 -6 -47 10 4 21 3 0 11 -3
19 -8z m2651 -1 c0 -5 -9 -10 -20 -10 -11 0 -20 5 -20 10 0 6 9 10 20 10 11 0
20 -4 20 -10z m-5237 -7 c-7 -2 -19 -2 -25 0 -7 3 -2 5 12 5 14 0 19 -2 13 -5z
m1344 1 c-3 -3 -12 -4 -19 -1 -8 3 -5 6 6 6 11 1 17 -2 13 -5z m1386 -14 c-8
-31 -23 -35 -21 -6 1 15 8 26 14 26 7 0 10 -8 7 -20z m2295 13 c-10 -2 -26 -2
-35 0 -10 3 -2 5 17 5 19 0 27 -2 18 -5z m57 -23 c3 -5 1 -10 -4 -10 -6 0 -11
5 -11 10 0 6 2 10 4 10 3 0 8 -4 11 -10z m55 0 c0 -5 -9 -10 -20 -10 -11 0
-20 5 -20 10 0 6 9 10 20 10 11 0 20 -4 20 -10z m-2450 -9 c0 -11 -26 -22 -34
-14 -12 12 -5 23 14 23 11 0 20 -4 20 -9z m-196 -16 c-4 -8 -10 -12 -15 -9
-11 6 -2 24 11 24 5 0 7 -7 4 -15z m2426 -5 c0 -5 -4 -10 -10 -10 -5 0 -10 5
-10 10 0 6 5 10 10 10 6 0 10 -4 10 -10z m257 -12 c-3 -8 -6 -5 -6 6 -1 11 2
17 5 13 3 -3 4 -12 1 -19z m-3107 -8 c0 -5 -2 -10 -4 -10 -3 0 -8 5 -11 10 -3
6 -1 10 4 10 6 0 11 -4 11 -10z m0 -31 c0 -6 -7 -12 -15 -15 -8 -3 -27 -30
-44 -59 -23 -40 -37 -54 -60 -58 -16 -4 -48 -25 -71 -49 -22 -24 -50 -43 -60
-43 -11 0 -19 -3 -17 -6 4 -12 -25 -38 -38 -33 -7 3 -16 1 -19 -5 -4 -6 -12
-8 -19 -5 -7 2 -25 -9 -41 -25 -16 -16 -35 -27 -42 -24 -8 3 -14 0 -14 -6 0
-8 -60 -41 -76 -41 -2 0 1 10 5 23 5 12 14 21 20 19 7 -1 32 20 58 48 25 27
51 50 57 50 7 0 30 18 51 40 21 22 44 40 50 40 6 0 32 18 58 40 29 24 54 37
63 33 10 -4 25 4 39 21 13 16 33 26 49 26 21 0 26 5 26 24 0 19 4 23 20 19 11
-3 20 -9 20 -14z m40 13 c0 -13 -12 -22 -22 -16 -10 6 -1 24 13 24 5 0 9 -4 9
-8z m2965 -22 c3 -5 2 -10 -4 -10 -5 0 -13 5 -16 10 -3 6 -2 10 4 10 5 0 13
-4 16 -10z m-2755 -25 c0 -19 -20 -29 -31 -18 -14 14 0 43 17 36 8 -3 14 -11
14 -18z m230 10 c0 -8 7 -15 15 -15 8 0 15 -4 15 -9 0 -5 -11 -8 -25 -8 -14 0
-35 -9 -46 -19 -18 -16 -21 -16 -35 -2 -15 14 -13 18 22 42 44 30 54 32 54 11z
m790 -6 c0 -24 -23 -21 -28 4 -2 10 3 17 12 17 10 0 16 -9 16 -21z m-916 -21
c-4 -13 -20 -36 -36 -51 -52 -50 -54 -100 -3 -81 18 7 45 -12 45 -32 0 -20
-51 -30 -64 -13 -13 16 -36 23 -36 11 0 -5 -9 -18 -21 -31 l-21 -22 -23 21
c-15 14 -28 19 -37 14 -13 -9 -18 -10 -38 -13 -5 0 -10 -8 -10 -16 0 -22 -17
-18 -23 5 -7 26 -23 26 -37 -1 -9 -16 -8 -24 5 -39 14 -15 21 -17 41 -8 13 6
31 22 39 35 24 36 38 29 31 -14 -6 -34 -5 -36 7 -20 8 9 21 17 30 17 9 0 28 5
42 12 19 9 28 9 37 0 7 -7 21 -12 33 -12 12 0 26 -5 33 -12 14 -14 102 -15
111 0 9 14 56 32 87 32 40 0 30 -34 -16 -55 -22 -10 -45 -24 -51 -31 -6 -8
-15 -11 -20 -8 -21 13 -6 -23 17 -39 25 -18 71 -17 84 2 3 5 15 11 28 15 26 9
30 -8 5 -23 -17 -10 -17 -10 0 -11 9 0 20 -1 24 -2 3 -2 7 5 9 16 4 30 22 42
30 21 5 -11 3 -20 -3 -22 -11 -4 -6 -43 6 -43 4 0 12 5 19 12 9 9 16 5 33 -16
16 -20 24 -24 34 -16 14 11 45 3 45 -12 0 -5 5 -6 10 -3 6 3 10 -3 10 -14 0
-10 -6 -21 -12 -24 -9 -3 -6 -12 10 -28 22 -23 22 -23 22 -2 0 23 26 38 34 20
3 -7 3 -1 0 13 -3 14 -12 30 -20 36 -12 9 -8 13 17 18 17 3 40 1 51 -5 15 -8
22 -8 28 1 5 9 31 10 96 4 49 -4 94 -7 101 -6 10 2 27 -15 28 -28 0 -12 35
-53 35 -41 0 10 11 12 44 8 36 -5 47 -2 63 15 10 11 16 23 13 27 -3 3 27 10
65 15 42 6 75 16 81 25 10 13 14 13 28 2 20 -17 12 -31 -20 -31 -13 0 -24 -4
-24 -10 0 -8 -40 -30 -82 -44 -10 -3 -18 -10 -18 -15 0 -6 6 -8 13 -5 8 3 18
-6 24 -19 11 -23 10 -25 -28 -31 -43 -7 -47 -13 -22 -31 14 -10 26 -10 60 0
42 13 43 13 43 -11 0 -15 6 -24 15 -24 8 0 15 -6 15 -14 0 -9 7 -12 19 -9 12
3 17 11 14 19 -3 8 1 14 11 14 18 0 22 -36 4 -42 -7 -3 -9 -12 -5 -22 6 -14
14 -17 45 -11 44 7 147 -15 185 -40 14 -9 31 -14 37 -10 19 12 30 -5 17 -25
-7 -13 -23 -20 -41 -20 -16 0 -27 -2 -25 -4 2 -2 7 -4 11 -3 3 1 17 -8 30 -19
25 -23 68 -38 68 -23 0 5 -13 12 -30 15 -33 7 -31 24 3 24 24 0 52 -34 42 -50
-4 -6 1 -10 9 -10 19 0 33 23 18 28 -24 8 -11 22 14 18 30 -6 74 -43 74 -63 0
-7 7 -13 15 -13 13 0 14 -4 1 -34 -13 -32 -13 -34 5 -39 10 -3 21 -1 25 4 3 5
16 2 29 -7 31 -20 23 -37 -11 -24 -31 12 -34 12 -34 0 0 -5 16 -12 36 -16 26
-5 32 -9 22 -16 -9 -6 -5 -7 12 -3 28 6 64 -13 43 -22 -19 -7 -16 -20 5 -19 9
1 19 -3 22 -9 10 -19 -51 -16 -95 5 -25 12 -49 19 -54 16 -5 -4 -16 1 -24 9
-9 8 -21 15 -28 15 -7 0 -20 6 -28 13 -9 8 -32 20 -51 27 -19 8 -60 28 -90 46
-30 17 -70 34 -88 37 -18 4 -49 20 -70 36 -20 16 -71 41 -112 54 -41 14 -88
32 -105 41 -16 9 -40 16 -52 16 -30 0 -74 18 -98 40 -13 12 -42 20 -85 23 -36
3 -80 10 -99 16 -18 6 -79 20 -135 31 -55 12 -119 29 -141 40 -22 10 -60 21
-85 25 -25 4 -64 18 -88 31 -40 22 -53 24 -202 24 -87 0 -161 4 -164 9 -3 4
-29 4 -57 0 -33 -5 -59 -4 -71 2 -13 7 -29 7 -50 0 -42 -15 -58 -14 -58 4 0
12 -5 13 -17 7 -10 -4 -56 -7 -103 -5 -130 5 -143 4 -165 -17 -12 -11 -29 -20
-39 -20 -10 0 -16 -6 -14 -12 3 -9 20 -12 49 -10 47 4 208 6 274 4 22 0 155
-1 296 -1 239 0 260 -1 300 -20 23 -11 58 -24 78 -27 20 -4 59 -16 86 -26 28
-11 70 -24 95 -28 111 -21 191 -40 207 -48 10 -5 47 -12 81 -16 35 -3 78 -12
95 -20 18 -8 52 -20 77 -26 25 -6 74 -25 110 -42 181 -85 340 -166 387 -195
29 -18 56 -33 60 -33 13 0 233 -145 277 -182 21 -18 46 -37 55 -42 81 -44 203
-150 296 -257 17 -19 58 -67 93 -105 156 -177 203 -264 140 -264 -21 0 -21 0
5 -28 15 -15 27 -35 27 -43 0 -7 7 -23 15 -33 8 -10 12 -22 10 -26 -8 -12 45
-54 68 -55 15 0 23 -7 24 -20 1 -18 7 -51 16 -97 2 -10 6 -21 10 -24 12 -13 8
-41 -9 -55 -14 -12 -14 -14 5 -21 21 -7 23 -14 26 -115 1 -18 4 -36 8 -40 11
-10 8 -53 -3 -53 -5 0 -10 -7 -10 -15 0 -8 3 -15 8 -15 19 0 34 -66 32 -143
-2 -112 -6 -162 -14 -175 -3 -6 -13 -47 -22 -93 -15 -78 -68 -209 -85 -209 -5
0 -6 -6 -3 -13 3 -8 -4 -25 -15 -38 -11 -13 -20 -18 -21 -11 0 20 -20 14 -20
-7 0 -10 -9 -30 -21 -45 -11 -14 -16 -26 -10 -26 17 0 13 -19 -9 -37 -11 -10
-20 -22 -20 -28 0 -23 -84 -106 -128 -127 -26 -12 -50 -24 -55 -26 -12 -6 -8
16 10 56 9 20 18 49 20 64 2 16 10 51 17 78 7 28 14 89 15 135 2 71 -1 85 -16
94 -10 6 -13 11 -7 11 17 0 27 32 13 40 -8 6 -8 13 0 29 8 15 9 27 1 40 -7 14
-6 21 3 24 9 4 9 7 0 18 -7 7 -13 25 -13 40 0 15 -5 40 -12 56 -11 26 -16 52
-19 98 0 11 -3 27 -6 35 -7 18 -5 11 -22 80 -8 30 -17 60 -22 66 -5 6 -7 13
-4 15 2 3 -13 36 -34 74 -29 54 -43 71 -62 72 -19 2 -28 -5 -44 -39 -28 -57
-48 -62 -43 -12 2 26 10 43 23 51 21 12 23 11 -29 27 -8 3 -20 24 -26 48 -6
24 -24 75 -41 113 -17 39 -35 85 -39 103 -4 18 -12 38 -18 45 -5 7 -12 24 -15
38 -4 14 -18 42 -32 63 -14 20 -25 46 -25 58 0 43 -23 85 -57 103 -18 10 -42
32 -53 49 -10 17 -53 65 -95 106 -42 41 -80 84 -85 96 -5 12 -30 34 -57 49
-26 16 -64 41 -83 56 -19 16 -71 47 -115 70 -44 23 -82 45 -85 49 -3 5 -37 28
-76 52 -39 23 -98 60 -130 82 -86 57 -122 66 -279 72 -77 3 -161 9 -187 14
-30 6 -64 6 -95 -1 -26 -5 -84 -14 -128 -19 -44 -6 -87 -13 -95 -16 -8 -3 -46
-9 -85 -14 -89 -11 -153 -38 -196 -83 -19 -19 -45 -37 -59 -38 -19 -3 -25 -10
-25 -29 0 -37 27 -36 100 4 71 39 145 57 145 36 0 -10 3 -10 15 0 11 9 20 9
43 -3 37 -18 92 -15 104 7 7 13 13 14 30 5 11 -6 36 -9 54 -6 35 6 43 -4 26
-31 -7 -10 -15 -9 -38 3 -25 12 -35 13 -57 2 -14 -6 -28 -21 -31 -32 -6 -21 4
-125 11 -125 3 0 16 9 30 19 13 11 30 18 38 15 7 -3 31 6 54 20 41 26 114 36
126 16 3 -5 13 -7 23 -4 14 5 15 4 2 -5 -21 -15 -6 -24 19 -12 60 31 60 31 68
16 10 -18 60 -27 69 -13 4 6 0 16 -9 23 -32 23 -20 43 31 51 26 4 50 11 53 16
13 20 37 -4 34 -35 -2 -24 -9 -33 -29 -40 -24 -8 -31 -18 -27 -40 1 -5 -7 -11
-18 -14 -11 -3 -23 -14 -26 -24 -4 -10 -13 -19 -21 -19 -22 0 -35 -45 -23 -77
l10 -27 19 30 c11 16 20 37 20 47 0 20 16 23 23 3 3 -7 19 -16 36 -19 25 -5
31 -12 31 -31 0 -36 15 -40 47 -10 15 14 40 32 56 40 26 14 28 13 37 -11 5
-14 14 -25 20 -25 18 0 11 -27 -12 -42 -16 -10 -19 -20 -14 -34 10 -27 10 -28
-26 -32 -49 -5 -53 -16 -18 -49 l31 -29 -35 -40 c-57 -63 -68 -74 -77 -68 -5
3 -9 1 -9 -5 0 -5 -7 -17 -16 -26 -13 -12 -14 -19 -5 -28 19 -19 13 -39 -11
-35 -17 2 -23 10 -23 28 0 20 -5 25 -22 23 -31 -4 -29 4 13 45 23 23 32 38 26
44 -12 12 -32 2 -32 -17 0 -16 -22 -25 -65 -25 -34 0 -59 -19 -47 -35 4 -6 13
-10 20 -11 6 -1 20 -2 30 -3 9 -1 27 -17 39 -35 21 -33 21 -36 6 -66 -8 -18
-12 -35 -7 -39 5 -3 14 -15 20 -26 6 -11 16 -20 22 -20 6 0 14 -3 18 -8 4 -4
-3 -6 -17 -6 -13 1 -31 -1 -40 -5 -10 -4 -20 -2 -24 3 -4 8 -15 5 -32 -9 -14
-11 -31 -20 -38 -20 -7 0 -18 -6 -24 -14 -7 -8 -24 -17 -39 -21 -15 -4 -30
-12 -34 -18 -5 -9 -12 -8 -23 4 -12 12 -15 26 -10 53 8 40 18 43 70 22 41 -17
75 -11 75 15 0 15 -7 19 -40 19 -33 0 -42 5 -51 24 -9 20 -17 23 -52 20 -23
-2 -46 -10 -53 -18 -17 -24 -54 -21 -54 4 0 11 -4 20 -9 20 -5 0 -13 -9 -16
-20 -3 -11 -13 -20 -22 -20 -13 0 -13 3 -3 15 10 13 9 15 -8 15 -30 0 -35 -16
-16 -45 19 -29 20 -27 -59 -108 -27 -28 -53 -61 -58 -74 -5 -13 -15 -23 -21
-21 -7 1 -26 -10 -42 -25 -27 -25 -28 -29 -14 -44 15 -15 18 -15 33 1 20 20
25 20 25 1 0 -20 -40 -55 -56 -48 -8 3 -14 -1 -14 -9 0 -7 -9 -19 -20 -26 -15
-9 -19 -19 -14 -37 5 -20 2 -25 -12 -25 -14 0 -15 -3 -6 -12 7 -7 12 -18 12
-26 0 -12 -4 -12 -23 1 -26 17 -57 3 -49 -22 3 -8 -6 -23 -19 -33 -16 -13 -20
-21 -11 -25 20 -8 14 -23 -9 -23 -17 0 -20 -5 -17 -25 4 -19 1 -25 -12 -25
-20 0 -70 -44 -70 -62 0 -7 -14 -24 -30 -37 -17 -13 -30 -32 -30 -42 0 -11 -4
-19 -10 -19 -12 0 -12 2 1 36 14 38 59 343 59 402 0 60 -21 92 -60 92 -30 0
-60 -30 -60 -61 0 -10 -12 -30 -28 -46 -26 -27 -57 -82 -49 -89 8 -8 57 49 57
66 0 28 25 25 44 -5 13 -19 17 -52 18 -143 1 -111 -1 -121 -30 -191 -18 -41
-32 -80 -32 -87 0 -7 -22 -65 -49 -129 -47 -111 -66 -139 -162 -243 -17 -18
-28 -36 -25 -40 10 -10 94 16 175 55 41 19 125 70 185 113 61 43 134 90 163
104 28 15 57 34 64 42 6 8 17 14 24 14 8 0 27 11 43 25 16 13 49 33 73 44 24
11 62 36 84 55 l40 35 -35 0 c-21 1 -64 -14 -105 -35 -39 -20 -71 -31 -73 -25
-2 6 13 30 32 53 52 62 136 179 136 190 0 10 -41 -37 -56 -64 -15 -26 -86
-100 -91 -94 -3 3 6 19 21 36 14 17 41 59 61 93 19 34 48 78 65 97 17 19 44
59 61 88 34 58 42 65 33 25 -5 -23 -4 -26 7 -15 24 22 29 13 29 -52 0 -35 4
-66 10 -68 13 -4 15 -230 2 -310 -5 -36 -20 -87 -31 -113 -12 -26 -21 -58 -21
-71 0 -23 -18 -70 -46 -126 -46 -87 78 12 189 152 171 216 167 210 147 210 -5
0 -15 -11 -22 -24 -20 -38 -203 -255 -206 -246 -2 5 6 18 17 29 12 12 21 25
21 29 0 5 29 46 65 93 94 121 141 191 198 299 28 52 56 100 62 106 5 6 23 32
40 58 16 26 31 42 34 35 4 -12 -30 -86 -59 -129 -9 -14 -20 -34 -24 -45 -6
-18 -5 -18 8 -5 27 26 81 124 105 188 46 122 61 62 56 -228 -2 -144 -8 -223
-18 -265 -9 -33 -23 -89 -32 -125 -9 -36 -23 -88 -31 -116 -7 -28 -14 -60 -14
-72 0 -19 3 -20 30 -10 17 5 38 22 48 36 9 14 46 55 82 91 116 119 250 285
281 349 17 35 28 66 25 69 -11 12 -36 -7 -51 -39 -31 -67 -52 -93 -74 -92 -22
1 -30 -21 -9 -28 12 -4 -91 -135 -119 -151 -19 -11 -13 35 8 60 34 40 89 139
89 158 0 8 5 15 10 15 6 0 10 11 10 25 0 15 6 25 14 25 10 0 12 7 8 22 -4 18
-2 20 13 14 11 -4 22 -2 27 6 12 20 9 38 -7 38 -25 0 -17 24 15 42 20 11 30
25 30 41 0 12 6 29 12 35 10 10 10 17 0 33 -13 21 -7 43 9 34 5 -4 9 0 9 7 0
8 3 9 8 3 4 -5 16 -12 27 -13 11 -2 24 -7 29 -12 15 -15 10 -211 -6 -221 -10
-7 -11 -12 -1 -28 13 -21 -2 -125 -42 -294 -8 -37 -13 -72 -10 -77 13 -21 36
6 60 73 36 96 87 207 97 207 4 0 12 -18 18 -39 5 -21 18 -42 26 -45 15 -6 15
-9 -2 -27 -17 -20 -18 -22 -2 -32 14 -10 15 -13 1 -34 -13 -19 -13 -35 -5 -90
11 -77 6 -223 -8 -237 -17 -17 -12 -76 6 -76 25 0 48 68 47 147 0 51 4 74 14
77 7 3 13 12 13 20 0 10 6 13 18 9 26 -10 30 -22 25 -64 -5 -33 -3 -39 13 -39
18 -1 18 -1 2 -14 -19 -14 -24 -36 -9 -36 6 0 13 5 16 10 8 13 25 13 25 0 0
-6 -11 -15 -25 -20 -32 -12 -35 -59 -5 -67 11 -3 20 -10 20 -15 0 -5 -4 -7 -9
-4 -5 3 -14 -1 -21 -9 -11 -13 -10 -18 6 -30 18 -14 18 -16 2 -28 -13 -10 -14
-17 -5 -32 15 -28 16 -54 1 -66 -7 -6 -10 -17 -7 -25 3 -8 -2 -23 -12 -34 -10
-11 -15 -26 -12 -34 4 -9 2 -18 -4 -21 -5 -4 -7 -10 -4 -15 3 -5 1 -11 -4 -14
-5 -4 -8 -42 -6 -86 4 -67 2 -80 -11 -80 -11 0 -13 -6 -9 -20 4 -12 0 -31 -9
-45 -8 -13 -15 -36 -14 -52 1 -60 -118 -456 -169 -556 -26 -52 -23 -72 9 -61
11 3 23 1 27 -5 4 -6 18 9 31 34 14 25 28 45 33 45 14 0 20 -32 10 -49 -6 -9
-14 -31 -17 -49 -4 -17 -12 -34 -17 -37 -14 -9 -11 -35 5 -35 15 0 30 22 63
92 10 21 26 41 36 44 12 4 17 12 14 24 -4 18 6 22 81 32 6 1 12 9 12 19 0 9 8
20 17 23 14 6 15 9 4 15 -18 12 -5 31 22 32 12 0 16 3 10 6 -15 6 -17 33 -3
33 6 0 10 9 10 21 0 12 4 17 11 13 7 -4 9 -21 5 -43 -20 -120 -32 -147 -65
-143 -22 2 -59 -24 -48 -35 3 -3 20 -1 36 5 17 6 32 8 34 4 7 -12 -23 -72 -36
-72 -8 0 -7 -4 3 -10 11 -7 11 -10 2 -10 -7 0 -11 -4 -8 -9 6 -8 -26 -89 -40
-103 -4 -4 -15 -3 -25 3 -17 9 -18 8 -7 -17 10 -22 10 -28 0 -32 -6 -2 -12 -8
-12 -13 0 -6 5 -7 10 -4 12 8 2 -47 -10 -55 -4 -3 -10 -15 -14 -27 -4 -13 -14
-23 -22 -23 -9 0 -12 -5 -8 -12 4 -7 3 -8 -4 -4 -7 4 -12 2 -12 -4 0 -6 -5 -8
-11 -4 -8 4 -7 9 2 15 20 12 4 22 -18 11 -10 -5 -35 -8 -55 -6 -21 2 -40 -1
-43 -7 -4 -5 -1 -9 4 -9 6 0 11 -7 11 -15 0 -8 6 -14 13 -12 6 1 11 -7 10 -17
-1 -11 5 -26 14 -34 12 -13 16 -13 23 -1 5 7 12 11 15 7 10 -9 -45 -59 -57
-52 -7 5 -8 2 -3 -6 6 -10 3 -12 -14 -7 -24 6 -85 -38 -75 -54 3 -5 -1 -6 -9
-3 -8 3 -18 1 -21 -5 -4 -6 -15 -7 -28 -2 -22 8 -68 -7 -68 -22 0 -5 -16 -7
-35 -6 -22 2 -42 -3 -55 -14 -22 -18 -70 -23 -70 -7 0 6 5 10 10 10 6 0 10 5
10 10 0 6 -9 10 -20 10 -16 0 -20 -7 -20 -30 0 -26 -5 -31 -30 -37 -27 -5 -43
-23 -20 -23 5 0 7 -7 4 -15 -4 -9 -17 -14 -33 -13 -14 1 -41 -2 -60 -6 -23 -6
-36 -4 -41 4 -4 7 -13 9 -19 5 -9 -5 -9 -11 1 -22 11 -14 10 -15 -8 -9 -14 4
-30 -1 -47 -14 -14 -11 -33 -19 -44 -19 -16 1 -16 2 0 6 9 2 17 8 17 13 0 5 3
15 6 23 4 10 -2 14 -21 14 -18 0 -27 -6 -31 -23 -3 -13 -10 -22 -14 -19 -5 3
-11 -3 -15 -14 -4 -13 -12 -17 -25 -14 -10 3 -32 -2 -49 -10 -29 -14 -41 -13
-41 5 0 5 4 7 9 4 5 -3 11 1 15 9 3 8 0 15 -7 16 -7 0 -24 2 -39 4 -15 2 -30
-1 -33 -6 -4 -5 -12 -9 -18 -9 -7 0 -6 4 3 10 12 8 12 10 -4 16 -18 7 -39 -13
-30 -28 3 -4 0 -8 -5 -8 -6 0 -11 -7 -11 -16 0 -12 7 -15 25 -12 33 7 32 -8
-2 -16 -33 -9 -68 19 -43 34 22 14 -12 24 -59 17 -21 -2 -45 0 -54 5 -22 12
-22 -1 1 -18 29 -21 0 -37 -75 -40 -38 -2 -88 -8 -113 -13 -27 -6 -46 -6 -48
0 -2 5 -10 2 -19 -6 -8 -9 -23 -13 -33 -10 -10 3 -21 1 -25 -5 -3 -5 -15 -10
-26 -10 -10 0 -19 -5 -19 -11 0 -8 -5 -8 -15 1 -21 17 -12 25 42 40 27 7 52
17 57 21 6 5 20 9 32 9 12 0 30 3 39 6 13 6 14 9 3 16 -10 7 -7 13 12 26 43
29 151 135 180 177 28 41 40 107 39 222 0 23 7 82 16 130 19 111 19 146 0 183
-20 40 -40 38 -139 -9 -45 -21 -99 -44 -121 -51 -21 -7 -52 -21 -69 -30 -17
-10 -51 -21 -76 -25 -25 -4 -61 -14 -80 -22 -19 -8 -73 -21 -120 -28 -152 -25
-194 -33 -295 -61 -55 -14 -125 -26 -155 -26 -31 0 -64 -5 -76 -13 -28 -18
-37 -56 -22 -92 6 -15 10 -32 9 -36 -1 -5 7 -11 18 -14 24 -6 47 -62 28 -68
-7 -3 -34 -7 -62 -9 -27 -2 -53 -4 -57 -5 -5 -1 -8 -10 -8 -21 0 -25 27 -26
58 -4 13 9 34 14 48 11 16 -3 24 0 24 10 0 31 25 4 26 -28 2 -55 4 -60 14 -54
6 3 10 2 10 -4 0 -5 -8 -9 -19 -8 -10 0 -18 8 -17 17 1 16 -52 27 -81 16 -12
-5 -13 -9 -3 -21 15 -18 6 -32 -12 -18 -19 13 -35 10 -50 -9 -12 -16 -16 -16
-61 7 -26 13 -53 22 -61 19 -18 -7 -9 84 11 107 12 14 12 19 -2 33 -9 9 -21
16 -27 16 -7 0 -7 4 1 13 6 8 8 17 4 20 -3 4 -1 7 6 7 7 0 11 6 8 14 -3 8 3
24 13 36 11 12 21 30 24 39 16 62 19 82 17 130 -6 105 -89 182 -202 187 -32 1
-64 6 -70 10 -8 4 -9 3 -5 -4 12 -20 -3 -33 -25 -22 -23 13 -46 3 -31 -12 7
-7 -3 -22 -28 -44 -39 -35 -60 -43 -60 -21 0 6 -10 -3 -22 -21 -15 -24 -23
-30 -29 -21 -6 10 -10 10 -23 0 -9 -8 -24 -10 -38 -6 l-22 8 28 23 c31 27 24
31 -18 9 -16 -9 -31 -13 -34 -10 -3 3 0 5 6 5 25 0 11 19 -19 25 -31 7 -52 36
-31 43 7 2 12 8 12 13 0 6 -5 7 -11 3 -9 -5 -10 1 -5 20 5 19 3 26 -9 26 -8 0
-15 -5 -15 -11 0 -21 -47 47 -80 116 -38 79 -53 109 -91 180 -44 80 -59 117
-53 126 3 5 -6 24 -20 41 -13 18 -28 47 -31 63 -4 17 -15 48 -26 70 -10 22
-21 56 -24 75 -3 19 -15 62 -26 95 -11 33 -19 78 -18 100 2 22 -5 56 -14 74
-25 49 -22 59 31 115 26 29 63 70 82 92 l36 41 114 2 c395 6 483 10 491 23 16
25 10 77 -11 90 -11 7 -20 18 -20 24 0 6 28 46 63 89 146 181 232 307 307 450
29 55 56 104 61 109 5 6 9 18 9 28 0 19 50 102 57 95 2 -3 -1 -31 -7 -63 -5
-33 -14 -89 -20 -127 -5 -37 -14 -76 -19 -86 -6 -10 -31 -81 -57 -157 -50
-151 -123 -311 -154 -339 -12 -11 -18 -25 -15 -36 6 -18 -26 -92 -45 -104 -18
-11 -11 -35 10 -35 38 0 183 88 255 155 110 101 144 135 166 166 37 50 57 92
52 107 -3 7 2 24 11 37 9 13 16 29 16 35 0 19 -30 10 -46 -15 -9 -14 -20 -22
-25 -19 -5 3 4 24 21 47 16 22 30 46 30 53 0 6 16 15 36 19 35 6 36 7 33 53
-4 80 0 102 17 102 12 0 15 6 10 25 -6 23 -3 25 24 25 32 0 37 9 18 28 -9 9
-8 16 5 30 24 26 21 32 -13 32 -31 0 -37 13 -21 39 7 12 13 12 24 3 11 -9 19
-7 38 14 20 21 21 27 9 34 -22 14 -67 12 -73 -2 -3 -7 -6 -3 -6 8 -1 12 8 32
19 45 18 23 19 23 21 4 1 -11 1 -24 0 -28 -2 -14 43 5 54 22 20 32 34 81 25
86 -5 3 -18 -3 -29 -14 -27 -27 -64 -31 -69 -7 -2 11 4 23 14 29 17 9 17 10 0
23 -19 13 -14 34 9 34 15 0 28 -27 19 -41 -3 -5 2 -9 10 -9 9 0 16 7 16 15 0
8 9 19 20 25 14 8 19 17 15 29 -5 16 2 20 41 26 57 8 94 31 94 56 0 24 29 37
41 18 13 -20 11 -37 -3 -35 -7 0 -14 -3 -16 -9 -4 -13 28 -20 37 -8 3 4 16 14
29 21 20 11 22 10 22 -9 0 -11 5 -17 10 -14 6 3 10 -1 10 -9 0 -26 26 -18 61
17 34 34 79 46 79 21 0 -8 -4 -14 -10 -14 -15 0 -12 -19 8 -40 17 -18 18 -18
45 5 15 13 27 29 27 34 0 5 10 17 21 25 15 10 19 20 14 33 -5 12 -9 14 -12 6
-3 -7 -11 -13 -19 -13 -8 0 -14 -7 -14 -15 0 -8 -6 -15 -14 -15 -7 0 -19 7
-26 15 -7 8 -25 15 -41 15 -41 0 -37 24 9 51 20 13 41 29 45 36 4 7 17 13 27
13 11 0 20 3 20 8 0 4 5 14 10 22 8 12 15 9 39 -19 18 -21 33 -31 41 -26 10 6
9 11 -3 20 -14 10 -12 15 18 44 19 18 35 41 35 51 0 27 26 45 45 30 12 -10 18
-10 30 0 12 10 16 8 24 -11 7 -21 15 -24 65 -24 31 0 56 3 56 6 0 13 -28 29
-42 24 -18 -7 -53 30 -43 45 4 6 13 9 20 6 8 -3 19 2 25 9 7 8 22 13 33 12 16
-1 23 4 25 20 2 12 12 25 23 28 33 11 68 49 59 65 -4 8 -10 32 -13 53 -4 27
-2 37 8 37 8 0 17 5 21 11 5 9 -1 10 -20 5 -14 -3 -26 -2 -26 2 0 19 -39 6
-64 -21 -30 -32 -32 -45 -11 -53 24 -10 17 -29 -15 -41 -26 -10 -32 -9 -40 7
-7 12 -7 28 0 45 14 38 -6 68 -44 62 -19 -3 -35 2 -48 15 -17 17 -17 20 -3 35
23 22 4 37 -28 22 -22 -10 -30 -9 -45 4 -16 15 -20 15 -47 -3 -36 -23 -48 -45
-40 -70 4 -11 2 -20 -3 -20 -6 0 -13 -8 -16 -17 -4 -10 -4 -14 0 -10 9 9 34
-12 34 -29 0 -9 -11 -14 -28 -14 -32 0 -44 8 -35 23 3 6 6 36 5 66 -2 61 11
85 60 110 27 14 29 31 4 31 -34 0 -112 -57 -118 -86 -2 -13 -11 -19 -28 -19
-17 0 -24 5 -22 15 2 8 5 41 8 74 3 40 10 64 22 73 36 28 92 53 122 53 33 0
41 17 13 27 -15 6 -14 8 6 13 14 3 26 11 29 18 3 10 -5 12 -31 7 -21 -4 -37
-3 -41 4 -13 20 -64 12 -93 -15 -23 -21 -25 -28 -15 -44 16 -26 16 -26 -15
-25 -18 0 -29 -6 -31 -17 -2 -11 3 -18 12 -18 21 0 20 -13 -3 -34 -11 -10 -23
-31 -26 -47 -6 -25 -11 -29 -38 -26 -29 2 -33 -1 -41 -35 -7 -29 -6 -40 8 -53
13 -14 14 -20 4 -32 -7 -8 -13 -22 -14 -30 -5 -29 -14 -44 -24 -38 -6 4 -8 15
-5 25 10 32 -23 32 -47 0 -12 -17 -28 -30 -35 -30 -8 0 -11 -4 -8 -10 3 -5 1
-10 -5 -10 -7 0 -10 6 -7 14 3 8 2 27 -2 43 -6 22 -13 28 -34 28 -15 0 -26 4
-26 9 0 5 -5 12 -12 17 -10 6 -10 11 0 23 8 9 15 33 17 54 3 20 5 43 6 50 1 6
6 12 12 13 6 1 22 2 35 2 41 3 38 27 -3 27 -25 0 -36 5 -36 15 0 12 -28 35
-44 35 -10 0 -37 -61 -31 -70 3 -6 13 -10 21 -10 13 0 13 -2 -1 -16 -9 -10
-14 -25 -12 -35 4 -14 0 -19 -14 -19 -16 0 -19 7 -19 40 0 55 -25 55 -27 0 -2
-49 -8 -60 -33 -60 -13 0 -22 -9 -26 -25 -7 -27 -24 -34 -24 -11 0 8 -8 17
-17 20 -12 4 -19 17 -20 41 -1 20 3 33 8 30 5 -4 9 -13 9 -22 0 -10 5 -13 18
-8 9 4 25 10 35 12 12 4 17 16 17 39 0 22 6 37 15 40 10 4 13 13 10 24 -3 10
-1 21 5 25 6 4 8 16 5 26 -6 17 -3 19 20 16 15 -2 31 -10 36 -18 5 -8 9 -9 9
-4 0 6 -4 15 -8 20 -16 24 -152 116 -198 135 -27 11 -61 27 -76 35 -15 9 -30
14 -35 13 -4 -1 -34 4 -65 11 -63 13 -164 9 -181 -8 -6 -6 -20 -11 -30 -11
-21 0 -85 -32 -133 -67 -17 -13 -43 -23 -57 -23 -14 0 -32 -7 -41 -15 -8 -8
-19 -15 -25 -15 -6 0 -11 -5 -11 -11 0 -16 -53 -87 -69 -94 -17 -7 -51 22 -46
38 3 7 -18 39 -45 72 -43 52 -50 64 -44 90 6 26 5 28 -9 17 -12 -10 -16 -10
-21 4 -3 8 -6 24 -6 35 0 23 -15 24 -54 4 -16 -9 -55 -15 -91 -15 -34 0 -97
-9 -140 -20 -49 -13 -82 -17 -88 -11 -6 6 8 46 38 106 72 148 210 284 364 359
71 35 75 35 94 19 10 -10 22 -17 26 -16 3 1 5 -11 5 -27 -1 -20 2 -28 10 -23
12 9 18 10 45 12 10 0 21 10 24 22 3 12 10 18 17 14 6 -3 19 4 29 16 13 16 23
20 37 15 18 -7 17 -9 -8 -31 -18 -16 -28 -34 -28 -52 l0 -28 13 25 c8 14 18
24 23 23 5 0 20 14 34 33 14 18 32 33 40 31 8 -1 20 7 25 18 7 13 20 20 38 19
21 -1 25 2 17 11 -8 9 -3 17 16 30 24 16 26 16 21 1 -9 -24 1 -20 27 11 20 23
30 27 77 26 65 -2 119 13 119 33 0 8 10 14 23 14 23 0 47 17 47 33 0 5 -8 6
-17 2 -35 -14 -113 -15 -113 -2 0 22 26 51 34 38 8 -12 44 2 58 22 3 6 17 11
30 12 14 1 28 12 38 31 18 35 45 45 37 14 -3 -14 -1 -20 6 -17 7 2 13 13 15
25 5 30 37 28 66 -3 28 -30 32 -31 39 -4 5 18 8 19 27 9 15 -8 20 -8 16 -1 -4
7 1 11 13 11 11 0 24 -7 29 -16 8 -14 12 -14 31 7 19 20 23 21 31 9 5 -8 10
-22 11 -30 1 -8 2 -19 4 -25 1 -5 3 -14 3 -19 4 -18 32 18 32 40 0 16 6 24 18
24 11 0 13 3 5 8 -6 4 -17 20 -23 36 -7 21 -14 25 -23 18 -6 -5 -33 -13 -59
-16 -47 -6 -48 -6 -48 20 0 20 -3 24 -12 16 -14 -11 -84 -11 -80 1 1 4 2 11 2
15 0 4 13 13 30 19 25 9 31 9 39 -4 4 -9 14 -13 22 -11 8 3 19 -4 25 -14 10
-18 12 -16 37 19 29 43 34 63 15 64 -7 0 -3 4 10 9 12 5 22 18 22 28 0 10 9
27 21 38 17 15 22 16 29 4 7 -11 12 -11 23 -2 8 7 27 10 45 6 23 -5 35 -1 53
17 27 27 65 49 84 49 7 0 15 7 19 15 6 17 64 55 84 55 9 0 11 -7 6 -22z m2271
2 c3 -5 1 -10 -4 -10 -6 0 -11 5 -11 10 0 6 2 10 4 10 3 0 8 -4 11 -10z
m-2960 -50 c3 -5 2 -10 -4 -10 -5 0 -13 5 -16 10 -3 6 -2 10 4 10 5 0 13 -4
16 -10z m3525 -6 c0 -2 -9 -4 -21 -4 -11 0 -18 4 -14 10 5 8 35 3 35 -6z m30
12 c0 -3 -4 -8 -10 -11 -5 -3 -10 -1 -10 4 0 6 5 11 10 11 6 0 10 -2 10 -4z
m-1857 -33 c-7 -2 -19 -2 -25 0 -7 3 -2 5 12 5 14 0 19 -2 13 -5z m-483 -15
c16 -10 24 -10 40 0 16 10 20 10 20 -2 0 -8 2 -21 5 -28 4 -9 -2 -13 -20 -13
-14 1 -28 4 -31 8 -4 3 -16 0 -28 -8 -28 -21 -33 -19 -39 12 -7 40 17 53 53
31z m352 1 c2 -7 12 -7 30 2 15 6 35 9 45 5 15 -6 13 -12 -21 -41 -39 -34 -40
-34 -70 -17 -17 9 -32 17 -32 17 -1 0 -5 10 -8 23 -7 19 -4 22 22 22 17 0 32
-5 34 -11z m-496 -24 c-21 -16 -32 -13 -21 4 3 6 14 11 23 11 15 -1 15 -2 -2
-15z m945 6 c19 12 29 11 29 -1 0 -5 -8 -10 -19 -10 -10 0 -24 -7 -31 -15 -17
-21 -57 -19 -63 3 -4 15 -6 14 -12 -5 -7 -20 -51 -38 -60 -23 -7 11 35 51 46
45 5 -3 16 -2 26 3 9 5 28 6 43 2 15 -4 34 -4 41 1z m-1276 -42 c4 -6 12 -8
19 -6 6 3 21 -2 31 -10 14 -11 16 -17 7 -20 -6 -3 -10 -10 -6 -16 3 -7 -2 -3
-10 7 -16 20 -16 20 -31 0 -15 -18 -15 -18 -13 6 2 14 -4 30 -12 37 -10 8 -11
12 -3 13 6 0 15 -5 18 -11z m1045 -2 c0 -7 -5 -18 -11 -24 -8 -8 -5 -15 10
-25 13 -9 19 -21 16 -30 -4 -10 1 -17 16 -21 21 -6 20 -7 -12 -34 -19 -15 -35
-31 -37 -35 -5 -11 -40 -10 -47 2 -3 5 -1 19 5 30 12 23 8 24 -37 11 -25 -7
-33 -6 -37 6 -4 11 -14 13 -36 8 -34 -7 -39 4 -12 27 18 16 69 33 90 29 7 -1
15 6 19 15 16 42 73 74 73 41z m-347 -22 c8 -8 29 -16 45 -17 34 -2 38 -27 6
-39 -33 -13 -44 -10 -44 12 0 18 -2 19 -15 9 -12 -10 -16 -8 -24 11 -14 39 4
52 32 24z m765 -2 c12 -24 4 -43 -18 -43 -14 0 -18 7 -18 30 1 33 22 40 36 13z
m302 -14 c0 -10 -6 -19 -12 -20 -7 0 -23 -2 -35 -5 -18 -3 -23 1 -23 16 0 12
9 24 23 29 29 11 47 3 47 -20z m-1546 15 c24 -9 19 -21 -13 -32 -35 -12 -44
-6 -30 19 10 20 18 23 43 13z m1189 -9 c-3 -9 -8 -14 -10 -11 -3 3 -2 9 2 15
9 16 15 13 8 -4z m-3875 -29 c-13 -19 -26 -32 -30 -30 -5 3 -8 0 -8 -7 0 -7
-2 -10 -5 -7 -7 7 16 60 30 70 27 20 34 6 13 -26z m2869 8 c3 -9 1 -25 -5 -34
-9 -15 -8 -20 5 -25 15 -5 13 -9 -8 -29 -19 -19 -26 -20 -32 -9 -5 7 -5 22 -2
33 5 15 3 18 -8 14 -9 -3 -13 -13 -10 -25 7 -25 -13 -24 -27 2 -10 17 -7 25
22 55 36 37 55 43 65 18z m743 6 c-20 -13 -33 -13 -25 0 3 6 14 10 23 10 15 0
15 -2 2 -10z m475 0 c3 -5 1 -10 -4 -10 -6 0 -11 5 -11 10 0 6 2 10 4 10 3 0
8 -4 11 -10z m289 -19 c8 -12 -21 -34 -34 -26 -8 5 -8 11 1 21 13 16 25 18 33
5z m-1382 -53 c-9 -9 -12 -9 -12 0 0 7 -7 12 -15 12 -8 0 -15 6 -15 13 0 25
14 28 34 7 16 -15 18 -22 8 -32z m813 28 c29 12 34 12 39 -2 4 -9 -2 -18 -17
-23 -12 -5 -47 -23 -76 -41 -47 -27 -56 -29 -63 -16 -5 9 -18 16 -28 16 -13 0
-18 5 -14 15 4 8 12 15 18 15 7 0 25 13 40 29 28 29 29 29 48 11 18 -16 23
-17 53 -4z m-900 -16 c3 -5 1 -10 -4 -10 -6 0 -11 5 -11 10 0 6 2 10 4 10 3 0
8 -4 11 -10z m269 2 c7 -12 -7 -29 -29 -34 -11 -2 -19 -9 -18 -15 1 -6 -5 -17
-13 -24 -14 -11 -18 -10 -29 4 -12 16 -13 16 -17 -1 -6 -21 -60 -40 -66 -23
-2 5 -10 7 -18 4 -10 -4 -17 2 -21 16 -3 11 -9 21 -14 21 -5 0 -9 7 -9 15 0
20 19 19 43 -2 18 -17 19 -17 32 1 9 11 22 17 33 14 10 -3 30 3 43 13 24 19
74 25 83 11z m860 -60 c-1 -7 -2 -21 -2 -33 -3 -31 -22 -12 -22 22 0 20 4 29
13 27 6 -3 12 -10 11 -16z m-854 -1 c0 -5 -7 -12 -16 -15 -22 -9 -24 -8 -24 9
0 8 9 15 20 15 11 0 20 -4 20 -9z m89 -31 c9 0 22 5 27 10 13 13 46 2 38 -12
-4 -5 -15 -7 -26 -5 -14 4 -22 -1 -28 -19 -5 -13 -13 -24 -18 -24 -12 0 -37
30 -46 53 -10 30 6 44 22 19 8 -12 22 -22 31 -22z m561 28 c0 -5 -7 -8 -15 -8
-8 0 -18 0 -22 -1 -4 0 -9 4 -11 9 -2 6 8 9 23 8 14 0 25 -4 25 -8z m-222 -5
c0 -5 2 -16 7 -26 9 -22 -1 -35 -17 -19 -6 6 -29 9 -59 5 -41 -5 -49 -3 -49
11 0 9 8 16 18 17 38 2 62 6 69 12 9 9 33 9 31 0z m-751 -17 c3 -3 -3 -8 -13
-11 -10 -4 -26 -10 -36 -15 -23 -12 -49 17 -27 31 14 9 66 6 76 -5z m88 5 c3
-5 2 -12 -3 -15 -5 -3 -9 1 -9 9 0 17 3 19 12 6z m-31 -26 c-7 -18 -40 -20
-50 -3 -5 8 -2 9 9 5 9 -3 19 -2 22 3 10 16 25 11 19 -5z m976 -49 c0 -44 -13
-53 -34 -22 -8 14 -25 27 -36 31 -35 11 -22 25 25 25 45 0 45 0 45 -34z m220
-6 c0 -5 -4 -10 -10 -10 -5 0 -10 5 -10 10 0 6 5 10 10 10 6 0 10 -4 10 -10z
m-2560 -29 c0 -6 -4 -13 -10 -16 -5 -3 -10 1 -10 9 0 9 5 16 10 16 6 0 10 -4
10 -9z m2167 -48 c7 -18 2 -23 -33 -29 -16 -3 -43 -12 -62 -21 -25 -12 -39
-13 -56 -5 -17 7 -27 7 -34 0 -8 -8 -10 -2 -10 20 1 39 33 62 82 60 20 -1 39
1 42 5 9 9 65 -14 71 -30z m21 -86 c21 -16 0 -26 -38 -18 -26 5 -36 13 -38 29
-3 20 -1 21 30 10 18 -6 39 -15 46 -21z m161 -25 c0 -14 -2 -14 -9 3 -5 11 -9
14 -9 8 -1 -21 -17 -15 -18 7 -2 17 1 18 18 10 10 -6 19 -18 18 -28z m-2639
-12 c0 -11 7 -23 15 -26 23 -9 18 -19 -18 -32 -43 -15 -44 -15 -50 7 -4 16
-10 17 -59 10 -30 -5 -72 -16 -93 -25 -24 -10 -41 -12 -47 -6 -9 9 48 31 165
62 26 7 50 17 53 21 10 17 34 9 34 -11z m2647 -26 c-3 -3 -12 -4 -19 -1 -8 3
-5 6 6 6 11 1 17 -2 13 -5z m433 -64 c0 -5 -4 -10 -9 -10 -6 0 -13 5 -16 10
-3 6 1 10 9 10 9 0 16 -4 16 -10z m-77 -126 c8 -8 -3 -34 -14 -34 -5 0 -9 9
-9 20 0 19 11 26 23 14z m205 -180 c3 -27 -1 -33 -24 -38 -26 -7 -53 13 -54
40 0 19 25 35 50 32 20 -2 26 -9 28 -34z m-181 -95 c2 -20 -2 -29 -10 -26 -15
5 -17 57 -2 57 5 0 11 -14 12 -31z m253 -9 c0 -5 -4 -10 -10 -10 -5 0 -10 5
-10 10 0 6 5 10 10 10 6 0 10 -4 10 -10z m-1660 -7 c0 -5 -20 -8 -45 -9 -24 0
-42 3 -39 8 6 10 84 11 84 1z m-200 -13 c0 -5 -7 -10 -16 -10 -8 0 -12 5 -9
10 3 6 10 10 16 10 5 0 9 -4 9 -10z m473 -5 c41 5 62 3 87 -10 29 -15 31 -18
17 -32 -10 -11 -22 -13 -34 -8 -10 5 -34 10 -53 12 -19 1 -51 5 -70 7 -19 3
-39 5 -43 5 -4 1 -3 10 3 22 9 16 14 18 25 9 9 -8 33 -9 68 -5z m-128 -5 c-27
-12 -35 -12 -35 0 0 6 12 10 28 9 24 0 25 -1 7 -9z m-2170 -30 c3 -5 -1 -10
-9 -10 -9 0 -16 5 -16 10 0 6 4 10 9 10 6 0 13 -4 16 -10z m1590 0 c-3 -5 -14
-10 -23 -10 -9 0 -36 -9 -60 -20 -29 -13 -42 -15 -39 -7 4 13 81 46 110 46 10
1 15 -3 12 -9z m1830 0 c3 -5 -1 -10 -9 -10 -9 0 -16 5 -16 10 0 6 4 10 9 10
6 0 13 -4 16 -10z m-2706 -21 c34 -12 40 -24 16 -33 -17 -6 -19 -15 -5 -36 7
-12 12 -12 22 -2 6 6 18 12 25 12 17 0 17 -30 1 -31 -106 -5 -123 -3 -126 11
-1 8 7 20 19 25 30 14 25 28 -13 38 -24 7 -28 11 -17 18 19 12 40 11 78 -2z
m1403 -13 c56 -12 67 -32 35 -62 -32 -30 -81 -50 -75 -32 3 7 15 15 27 18 22
5 22 6 4 21 -26 22 -123 14 -123 -10 0 -9 -9 -22 -21 -29 -18 -11 -24 -11 -40
4 -10 9 -19 25 -19 36 0 10 -6 18 -12 19 -10 0 -10 2 -1 6 17 6 28 5 28 -4 0
-14 16 -33 26 -33 5 0 7 11 4 23 -5 20 -1 26 32 39 40 15 74 16 135 4z m338
-11 c0 -19 -11 -19 -36 0 -18 14 -18 14 9 15 17 0 27 -5 27 -15z m56 -19 c10
-8 16 -17 12 -21 -8 -8 -48 13 -48 25 0 14 13 12 36 -4z m-1661 -46 c-3 -5
-10 -10 -16 -10 -5 0 -9 5 -9 10 0 6 7 10 16 10 8 0 12 -4 9 -10z m147 -46
c39 -27 45 -38 28 -49 -5 -3 -10 -21 -10 -40 0 -49 -1 -49 -108 -19 -9 3 -10
9 -4 21 14 24 -14 63 -44 63 -13 0 -24 5 -24 10 0 16 56 12 70 -5 18 -22 27
-18 34 15 3 17 9 30 13 30 4 0 24 -12 45 -26z m802 17 c7 -10 -22 -37 -30 -28
-9 8 3 37 15 37 5 0 12 -4 15 -9z m726 -20 c0 -4 -6 -8 -14 -8 -8 0 -12 6 -9
14 5 13 23 9 23 -6z m1590 -1 c-20 -13 -33 -13 -25 0 3 6 14 10 23 10 15 0 15
-2 2 -10z m-1788 -16 c17 -16 17 -18 0 -30 -20 -15 -58 -18 -66 -5 -3 5 3 11
14 14 11 3 20 12 20 21 0 20 9 20 32 0z m1308 1 c7 -8 16 -15 20 -15 5 0 24
-15 43 -32 19 -18 44 -40 56 -48 18 -12 21 -19 13 -40 l-9 -24 -27 29 c-103
114 -128 145 -119 145 6 0 16 -7 23 -15z m-1885 -5 c3 -5 1 -10 -4 -10 -6 0
-11 5 -11 10 0 6 2 10 4 10 3 0 8 -4 11 -10z m-1085 -34 c0 -7 -6 -26 -14 -40
-10 -20 -16 -23 -23 -14 -18 23 -22 45 -10 57 16 16 47 14 47 -3z m2025 3 c10
-15 -1 -23 -20 -15 -9 3 -13 10 -10 16 8 13 22 13 30 -1z m-1904 -22 c-13 -13
-26 -3 -16 12 3 6 11 8 17 5 6 -4 6 -10 -1 -17z m-916 3 c-3 -5 -1 -19 5 -30
10 -18 7 -22 -27 -36 -20 -9 -42 -23 -49 -32 -6 -8 -15 -12 -21 -9 -5 3 -25
-2 -45 -12 -29 -16 -40 -17 -71 -8 -20 7 -37 15 -37 19 0 4 19 13 43 19 23 7
47 16 53 21 6 5 19 5 29 2 24 -10 38 17 17 32 -16 12 -16 13 0 19 9 4 26 1 38
-5 19 -10 26 -9 43 9 23 22 32 27 22 11z m453 -2 c-3 -7 -13 -15 -24 -17 -16
-3 -17 -1 -5 13 16 19 34 21 29 4z m2312 -40 c0 -13 -52 0 -62 15 -4 7 0 18
10 25 14 11 20 10 35 -9 9 -12 17 -26 17 -31z m-2690 27 c0 -8 -7 -15 -15 -15
-8 0 -15 7 -15 15 0 8 7 15 15 15 8 0 15 -7 15 -15z m4220 -12 c30 -9 75 -22
99 -29 25 -8 69 -14 98 -14 30 0 53 -4 53 -10 0 -6 6 -10 13 -8 6 1 45 -1 85
-6 57 -6 72 -11 72 -24 0 -10 3 -13 10 -6 14 14 136 2 132 -13 -1 -7 2 -13 7
-13 5 0 12 6 14 13 4 9 6 9 6 -1 1 -7 -8 -20 -19 -29 -25 -22 -25 -33 -1 -33
15 0 19 -8 19 -40 1 -27 -5 -43 -16 -50 -16 -9 -16 -9 1 -10 12 0 17 -8 17
-29 0 -33 -7 -40 -48 -47 -39 -7 -52 -24 -19 -24 20 0 27 -5 27 -19 0 -11 -5
-23 -12 -27 -7 -5 -5 -11 7 -21 18 -12 18 -13 -1 -13 -11 0 -26 6 -33 13 -10
10 -12 8 -9 -8 2 -11 10 -20 18 -21 8 -1 27 -2 43 -2 32 -2 36 -17 7 -25 -13
-3 -18 -10 -14 -21 4 -11 1 -16 -10 -16 -9 0 -16 -4 -16 -10 0 -5 5 -10 10
-10 19 0 25 -2 38 -12 6 -6 12 -17 12 -25 0 -11 -4 -13 -12 -6 -7 6 -31 16
-53 23 -22 7 -43 18 -47 23 -3 6 -28 16 -55 23 -41 10 -49 10 -56 -2 -6 -11
-12 -12 -21 -4 -10 7 -17 6 -26 -5 -7 -8 -21 -15 -31 -15 -24 0 -25 -19 -1
-22 9 0 31 -3 47 -4 17 -2 38 -4 48 -6 9 -1 17 -6 17 -12 0 -6 4 -5 9 3 5 7
14 10 20 7 6 -4 8 -12 5 -18 -4 -6 0 -14 7 -19 12 -7 12 -10 1 -18 -11 -7 -11
-9 2 -14 23 -9 50 -67 37 -80 -7 -7 -5 -14 6 -22 18 -14 8 -39 -13 -31 -9 3
-7 -6 6 -29 l20 -35 -35 0 c-19 0 -35 -4 -35 -10 0 -5 14 -10 30 -10 19 0 30
-5 30 -14 0 -11 -7 -13 -27 -7 -33 9 -78 -1 -51 -12 20 -7 13 -47 -8 -47 -26
0 -14 -18 17 -24 30 -6 32 -26 3 -26 -8 0 -13 -4 -9 -10 3 -5 13 -6 22 -3 11
4 14 2 11 -8 -2 -8 -17 -15 -31 -17 -30 -4 -35 -17 -11 -26 25 -9 54 -7 54 4
0 23 36 48 65 45 17 -2 38 -3 48 -4 28 -2 20 -43 -14 -74 -17 -14 -36 -25 -42
-24 -6 1 -11 -4 -12 -10 0 -20 -18 -17 -26 4 -6 16 -8 16 -14 2 -4 -11 -14
-15 -28 -12 -20 4 -21 3 -5 -10 10 -8 15 -17 11 -20 -3 -4 -1 -7 5 -7 6 0 13
-8 15 -17 2 -10 3 -8 2 5 -3 27 6 28 23 2 13 -22 57 -27 65 -7 3 7 6 5 6 -5 1
-10 8 -18 16 -18 18 0 20 -29 3 -32 -29 -3 -34 -4 -54 -16 -13 -7 -43 -9 -75
-6 -47 4 -51 3 -29 -7 72 -35 92 -41 115 -35 18 5 25 2 25 -8 0 -19 -21 -25
-44 -12 -14 8 -20 8 -23 -1 -2 -7 -11 -9 -19 -6 -8 3 -14 1 -14 -4 0 -13 49
-35 61 -28 5 4 9 1 9 -4 0 -6 -16 -11 -35 -11 -19 0 -35 -4 -35 -10 0 -5 6
-10 14 -10 8 0 16 -5 18 -10 2 -6 20 -11 40 -12 30 -1 36 -4 27 -15 -6 -7 -15
-11 -19 -8 -5 3 -11 1 -15 -5 -3 -5 -17 -10 -31 -10 -13 0 -24 -4 -24 -10 0
-5 8 -10 17 -10 13 0 14 -3 5 -12 -19 -19 -14 -30 11 -23 18 6 20 5 9 -6 -10
-10 -19 -11 -45 -1 -44 16 -62 15 -77 -3 -15 -18 -3 -42 13 -26 16 16 30 14
24 -3 -4 -9 3 -16 19 -20 13 -4 24 -11 24 -16 0 -6 8 -10 18 -11 10 0 12 -3 5
-6 -18 -7 -16 -23 2 -23 8 0 12 -6 9 -13 -4 -10 -17 -12 -52 -6 -26 4 -49 5
-51 3 -2 -2 0 -4 6 -4 6 0 13 -11 15 -25 3 -14 1 -25 -3 -25 -5 0 -9 5 -9 10
0 6 -4 10 -10 10 -5 0 -7 -7 -4 -15 4 -10 0 -15 -12 -15 -11 0 -26 -5 -34 -10
-10 -6 -1 -8 28 -5 48 4 51 -1 20 -41 -13 -15 -17 -25 -10 -20 6 4 12 3 12 -2
0 -10 68 -1 88 12 14 8 15 5 6 -18 -3 -9 -17 -16 -31 -16 -19 0 -23 -4 -18
-19 7 -23 -13 -39 -21 -16 -4 10 -10 12 -18 6 -6 -5 -28 -12 -49 -16 -21 -4
-41 -14 -44 -22 -3 -8 -11 -12 -17 -10 -7 3 -20 -1 -31 -9 -21 -15 -20 -16 53
-16 23 -1 42 -5 42 -11 0 -5 9 -7 19 -4 13 3 18 1 14 -9 -5 -14 -85 -30 -101
-20 -6 3 -21 2 -34 -3 l-23 -9 26 -12 c19 -8 36 -9 62 -2 27 8 39 7 47 -3 8
-10 5 -14 -15 -19 -29 -7 -32 -23 -8 -41 15 -11 13 -13 -16 -20 -30 -6 -33
-10 -27 -36 5 -27 4 -29 -14 -19 -17 9 -20 8 -20 -10 0 -22 -35 -29 -43 -7 -3
6 -6 2 -6 -11 -1 -21 -5 -23 -43 -21 -52 4 -64 -17 -14 -26 49 -10 63 -29 31
-43 -16 -7 -25 -20 -25 -34 0 -21 0 -21 16 -2 8 10 13 13 9 7 -4 -8 0 -13 9
-13 10 0 16 -9 16 -25 0 -22 -4 -25 -35 -25 -24 0 -35 5 -35 15 0 10 -10 15
-27 15 -35 0 -60 -14 -44 -24 6 -4 9 -12 5 -17 -4 -7 8 -8 33 -4 28 5 34 4 23
-4 -13 -9 -13 -11 2 -11 11 0 15 -5 12 -14 -4 -11 5 -16 38 -18 l43 -4 -32
-13 c-17 -7 -34 -19 -37 -27 -3 -9 -10 -13 -15 -9 -5 3 -12 1 -16 -5 -4 -6
-11 -8 -16 -5 -11 8 -12 -6 0 -24 5 -7 14 -10 20 -7 6 4 11 2 11 -4 0 -6 10
-15 23 -20 20 -8 20 -9 2 -9 -11 -1 -38 -4 -59 -8 -28 -4 -37 -3 -32 5 8 14 1
15 -43 6 -29 -6 -30 -8 -14 -20 15 -11 15 -13 3 -14 -27 -1 -44 -18 -46 -49
-1 -17 1 -31 4 -32 43 -7 72 -5 76 7 3 8 11 14 18 14 9 0 8 -3 -2 -10 -17 -11
-9 -13 34 -10 18 1 26 -2 22 -9 -4 -6 -16 -11 -26 -11 -10 0 -20 -6 -23 -12
-3 -10 -9 -10 -23 -2 -22 12 -57 7 -49 -7 4 -5 18 -9 32 -9 15 0 23 -3 19 -7
-4 -4 -48 -11 -97 -14 -60 -4 -94 -11 -102 -21 -7 -8 -36 -25 -64 -39 -57 -26
-68 -39 -28 -34 41 4 38 -12 -3 -21 -20 -4 -42 -8 -49 -9 -23 -1 -26 -15 -4
-15 18 0 22 -4 18 -20 -3 -11 0 -20 6 -20 26 0 -7 -14 -46 -19 -45 -6 -54 -27
-9 -24 26 2 26 1 8 -12 -11 -8 -28 -15 -38 -15 -11 0 -18 -7 -18 -19 0 -20
-56 -48 -62 -31 -5 16 -48 -1 -46 -18 2 -9 -4 -17 -12 -17 -8 0 -16 -10 -18
-21 -2 -15 -8 -20 -21 -17 -9 2 -23 -3 -30 -11 -11 -14 -11 -16 5 -16 22 0 84
36 100 58 8 11 13 12 18 3 4 -6 2 -18 -4 -26 -10 -11 -10 -15 -1 -15 7 0 10
-4 7 -9 -3 -4 -28 -11 -56 -15 -28 -4 -60 -11 -73 -16 l-22 -9 22 0 c34 -1 37
-20 6 -32 l-28 -12 30 -8 c21 -6 34 -4 45 6 9 8 21 11 28 6 16 -9 -8 -32 -55
-52 -18 -8 -33 -18 -33 -23 0 -4 -6 -3 -14 3 -14 12 -66 5 -66 -8 0 -16 14
-20 27 -10 19 17 17 -6 -3 -26 -11 -11 -20 -13 -27 -6 -13 13 -59 -9 -53 -26
8 -21 -18 -15 -32 7 -10 17 -10 21 2 26 8 3 12 13 9 25 -5 16 0 19 31 19 26 0
38 5 42 18 3 9 9 24 13 32 7 13 2 15 -26 12 l-35 -4 16 30 c9 17 23 52 32 79
9 26 29 60 45 76 16 15 29 34 29 41 0 8 5 18 10 21 6 3 10 16 10 28 0 12 13
45 28 72 15 28 36 76 47 108 10 31 23 57 27 57 4 0 8 14 8 30 0 36 18 75 64
134 33 43 76 157 106 279 9 37 20 68 26 68 5 0 13 -18 17 -41 7 -35 12 -41 30
-38 16 2 26 15 35 45 10 29 20 43 34 45 31 4 33 26 4 34 -31 7 -34 29 -6 46
25 16 25 36 0 63 -12 12 -23 41 -26 64 -4 33 0 48 21 78 14 21 25 43 25 49 0
6 9 19 20 29 11 10 20 22 20 28 0 5 16 43 36 84 31 66 53 147 83 301 13 66 13
244 1 314 -7 35 -13 86 -15 113 -6 75 -15 145 -26 190 -6 22 -14 56 -18 75
-13 55 -67 171 -106 230 -36 53 -36 54 -30 134 4 45 10 86 14 91 9 11 5 172
-4 223 l-6 34 43 -7 c24 -4 68 -14 98 -22z m198 20 c-10 -2 -26 -2 -35 0 -10
3 -2 5 17 5 19 0 27 -2 18 -5z m-1823 -12 c7 -12 -12 -24 -25 -16 -11 7 -4 25
10 25 5 0 11 -4 15 -9z m1882 3 c-3 -3 -12 -4 -19 -1 -8 3 -5 6 6 6 11 1 17
-2 13 -5z m-3876 -27 c-1 -12 -15 -9 -19 4 -3 6 1 10 8 8 6 -3 11 -8 11 -12z
m2214 3 c3 -5 -1 -10 -9 -10 -9 0 -16 5 -16 10 0 6 4 10 9 10 6 0 13 -4 16
-10z m-435 -14 c0 -14 -37 -29 -52 -20 -20 13 -7 34 22 34 19 0 30 -5 30 -14z
m-2322 -8 c-7 -19 -38 -22 -38 -4 0 10 9 16 21 16 12 0 19 -5 17 -12z m436 -3
c7 -20 -23 -33 -34 -14 -5 7 -6 17 -4 21 9 13 32 9 38 -7z m-514 -5 c0 -5 -7
-10 -15 -10 -8 0 -15 5 -15 10 0 6 7 10 15 10 8 0 15 -4 15 -10z m2893 -5 c12
5 14 -1 12 -26 -2 -33 -25 -55 -25 -24 0 9 -4 14 -9 10 -6 -3 -15 4 -21 15
-14 25 -4 46 15 30 7 -6 19 -8 28 -5z m-2051 -17 c-6 -6 -15 -8 -19 -4 -4 4
-1 11 7 16 19 12 27 3 12 -12z m-935 -30 c-3 -8 -6 -5 -6 6 -1 11 2 17 5 13 3
-3 4 -12 1 -19z m2811 -1 c6 3 12 -3 12 -13 0 -9 8 -23 18 -31 16 -13 15 -14
-8 -9 -14 3 -32 6 -41 6 -10 0 -19 11 -22 27 -6 35 2 51 17 31 6 -8 17 -13 24
-11z m-2059 10 c-2 -1 -15 -11 -28 -22 l-24 -20 12 23 c6 12 19 22 28 22 9 0
14 -1 12 -3z m2375 -6 c3 -4 3 -11 0 -14 -8 -8 -34 3 -34 14 0 11 27 12 34 0z
m-2144 -16 c0 -8 9 -15 20 -15 23 0 27 -15 5 -24 -8 -3 -15 -16 -15 -30 0 -29
-26 -42 -38 -19 -12 21 -42 10 -42 -17 0 -11 -7 -20 -15 -20 -8 0 -15 -7 -15
-15 0 -18 12 -19 28 -3 9 9 13 7 18 -6 4 -11 -3 -27 -21 -46 -15 -16 -24 -33
-21 -39 13 -21 80 -8 75 15 -3 19 1 34 11 34 5 0 7 -13 4 -30 -7 -32 0 -35 44
-24 14 4 21 12 18 20 -3 7 1 20 8 27 8 8 12 25 9 40 -7 34 -1 34 35 -2 l29
-30 -23 -5 c-44 -11 -41 -66 6 -89 35 -18 47 -43 32 -67 -17 -28 -16 -30 18
-30 17 0 30 -2 30 -4 0 -2 3 -11 6 -20 5 -13 -2 -16 -35 -16 -23 0 -41 -4 -41
-10 0 -5 -7 -10 -15 -10 -8 0 -15 -7 -15 -15 0 -8 4 -15 10 -15 5 0 8 -10 6
-22 -3 -13 -5 -27 -5 -32 -1 -4 -10 -6 -22 -3 -29 8 -49 -2 -42 -20 4 -9 -2
-22 -13 -30 -18 -13 -18 -15 -2 -24 13 -7 16 -17 12 -38 -4 -16 -1 -32 5 -35
14 -9 14 -26 1 -26 -5 0 -10 7 -10 15 0 19 -15 19 -45 -1 -21 -13 -28 -14 -41
-4 -8 7 -13 19 -10 26 3 7 1 16 -5 20 -6 3 -8 13 -5 21 4 9 -1 21 -11 28 -15
11 -15 15 6 49 13 20 21 39 18 42 -9 9 -48 -16 -46 -29 3 -27 -2 -35 -26 -39
-32 -7 -41 7 -24 38 9 19 10 27 1 36 -9 9 -18 5 -37 -18 -14 -16 -25 -34 -25
-39 0 -6 -16 -11 -36 -11 -42 0 -74 -31 -74 -70 0 -28 -7 -30 -38 -8 -26 18
-28 39 -6 52 20 11 10 32 -14 32 -15 0 -15 2 1 18 17 16 19 16 30 0 9 -11 22
-14 41 -11 24 5 27 10 25 37 -2 17 -6 36 -10 41 -13 20 -19 65 -9 65 6 0 8 -4
5 -10 -3 -5 1 -10 10 -10 8 0 18 -7 21 -15 8 -20 20 -19 44 5 24 24 48 17 56
-16 8 -32 30 -31 38 1 9 34 32 42 56 20 16 -15 21 -15 33 -4 19 20 10 44 -10
27 -12 -10 -18 -9 -28 5 -12 17 -16 17 -51 2 -30 -12 -39 -13 -46 -3 -16 25
-3 43 37 53 45 10 55 20 55 53 0 12 5 22 11 22 5 0 8 3 6 8 -4 6 -44 7 -78 3
-3 -1 -12 -19 -19 -41 -9 -26 -19 -39 -28 -38 -9 2 -18 -7 -22 -21 -6 -28 -19
-35 -40 -21 -12 7 -12 12 -2 22 6 6 12 22 12 34 0 18 4 21 21 17 19 -5 21 -3
14 28 -9 41 -10 43 -30 36 -8 -4 -15 -16 -15 -27 0 -11 -4 -20 -9 -20 -5 0
-12 -11 -15 -25 -4 -14 -10 -25 -14 -25 -10 0 -2 72 10 87 6 8 2 14 -13 18
-22 7 -39 -7 -39 -32 0 -7 -12 -24 -26 -40 l-26 -28 21 -16 c12 -10 21 -22 21
-27 0 -11 -52 -34 -71 -32 -27 4 -39 0 -39 -14 0 -7 -7 -19 -15 -26 -11 -9
-12 -16 -5 -25 14 -16 2 -26 -25 -19 -15 4 -24 0 -28 -10 -4 -9 -14 -16 -22
-16 -15 0 -15 2 -1 22 20 28 20 38 1 38 -9 0 -18 7 -22 16 -4 11 -13 13 -33 9
-16 -3 -31 -1 -35 4 -4 7 5 11 22 11 26 0 28 3 28 40 1 50 7 55 42 37 16 -9
38 -15 48 -14 14 1 21 -5 23 -20 2 -13 8 -23 14 -23 5 0 8 7 5 15 -4 8 -2 17
3 20 16 10 11 25 -7 25 -18 0 -53 28 -53 42 0 4 7 8 15 8 23 0 18 28 -9 45
-38 25 -39 42 -3 41 35 -1 61 -27 62 -61 0 -33 31 -29 53 7 12 20 35 39 56 46
23 9 35 19 34 30 -3 42 2 54 22 49 26 -7 55 16 47 37 -4 9 -2 16 3 16 6 0 21
13 36 29 26 30 132 68 160 57 8 -3 14 -1 14 4 0 6 5 10 10 10 6 0 10 -7 10
-15z m3010 -5 c0 -5 -2 -10 -4 -10 -3 0 -8 5 -11 10 -3 6 -1 10 4 10 6 0 11
-4 11 -10z m-3450 -10 c0 -5 -7 -10 -15 -10 -8 0 -15 5 -15 10 0 6 7 10 15 10
8 0 15 -4 15 -10z m1305 0 c3 -5 1 -10 -4 -10 -6 0 -11 5 -11 10 0 6 2 10 4
10 3 0 8 -4 11 -10z m878 -24 c3 -8 19 -17 35 -21 48 -10 53 -69 12 -122 l-16
-21 -15 21 c-18 29 -20 60 -3 53 7 -3 16 -1 20 5 7 12 -14 39 -29 36 -7 -1
-11 8 -10 21 2 16 -2 22 -17 22 -11 0 -20 5 -20 10 0 15 37 12 43 -4z m322 -6
c3 -11 4 -24 0 -29 -9 -15 -85 -9 -85 6 0 7 7 13 15 13 8 0 15 7 15 15 0 23
47 19 55 -5z m-1915 -47 c0 -12 -4 -23 -10 -23 -13 0 -30 34 -30 61 0 21 1 22
20 4 11 -10 20 -29 20 -42z m2040 47 c0 -5 -4 -10 -9 -10 -6 0 -13 5 -16 10
-3 6 1 10 9 10 9 0 16 -4 16 -10z m-2565 -9 c3 -5 1 -12 -5 -16 -5 -3 -10 1
-10 9 0 18 6 21 15 7z m110 -12 c8 -12 -23 -38 -46 -39 -12 0 -15 7 -11 25 3
18 11 25 28 25 12 0 26 -5 29 -11z m983 -11 c-7 -13 -11 -31 -9 -40 1 -11 -4
-18 -14 -18 -9 0 -19 -9 -22 -20 -3 -11 -9 -20 -14 -20 -12 0 -11 27 1 35 6 3
10 13 10 20 0 11 -8 13 -31 8 -28 -5 -30 -4 -27 18 2 18 8 23 25 21 12 -2 24
2 28 8 3 5 20 10 36 10 28 0 29 -1 17 -22z m180 1 c-2 -6 -8 -10 -13 -10 -5 0
-11 4 -13 10 -2 6 4 11 13 11 9 0 15 -5 13 -11z m798 0 c11 -19 6 -71 -7 -80
-18 -10 -22 -51 -7 -61 10 -6 9 -8 -4 -8 -9 0 -25 -10 -35 -23 -10 -13 -31
-27 -46 -31 -15 -3 -37 -18 -49 -31 -12 -14 -28 -25 -35 -25 -10 0 -12 -7 -8
-20 4 -11 2 -20 -4 -20 -6 0 -11 9 -11 20 0 10 -7 23 -16 28 -24 13 -9 30 21
25 17 -4 27 0 31 11 4 10 13 14 24 11 14 -4 20 1 25 25 4 17 15 36 26 43 10 6
19 17 19 24 0 7 9 18 19 25 13 8 17 16 11 23 -6 7 -5 23 2 43 13 33 31 41 44
21z m414 -45 c0 -15 -6 -24 -15 -24 -15 0 -21 40 -9 53 12 11 24 -3 24 -29z
m1008 11 c6 -14 16 -25 22 -25 5 0 10 -9 10 -20 0 -11 -3 -20 -7 -20 -15 0
-63 55 -63 72 0 26 25 22 38 -7z m-3458 1 c0 -2 -10 -22 -21 -44 -15 -27 -30
-42 -48 -45 -26 -5 -61 7 -61 21 1 21 130 89 130 68z m348 -45 c3 -8 -1 -12
-9 -9 -7 2 -15 10 -17 17 -3 8 1 12 9 9 7 -2 15 -10 17 -17z m292 14 c0 -12
-24 -55 -32 -55 -10 0 -11 44 -1 53 7 8 33 9 33 2z m58 -22 c2 -13 -4 -22 -17
-26 -24 -6 -37 19 -20 40 16 18 33 12 37 -14z m1762 -3 c0 -5 -5 -10 -11 -10
-5 0 -7 5 -4 10 3 6 8 10 11 10 2 0 4 -4 4 -10z m-3220 -10 c0 -5 -2 -10 -4
-10 -3 0 -8 5 -11 10 -3 6 -1 10 4 10 6 0 11 -4 11 -10z m1640 -5 c0 -8 -7
-15 -15 -15 -8 0 -15 7 -15 15 0 8 7 15 15 15 8 0 15 -7 15 -15z m204 0 c-6
-16 -24 -21 -24 -7 0 11 11 22 21 22 5 0 6 -7 3 -15z m-39 -5 c9 -14 -13 -40
-34 -40 -9 0 -22 -9 -29 -20 -16 -27 -31 -18 -24 15 3 15 11 25 22 25 10 0 20
7 24 15 6 17 32 20 41 5z m-1585 -30 c0 -5 -7 -16 -16 -25 -9 -8 -14 -22 -11
-30 3 -7 -1 -19 -8 -25 -18 -15 -9 -34 11 -26 21 8 17 -22 -5 -34 -21 -10 -51
-4 -51 11 0 5 7 9 16 9 10 0 14 6 10 18 -5 17 -9 68 -7 88 1 13 42 34 54 27 4
-2 7 -8 7 -13z m1950 -14 c-14 -14 -24 0 -16 21 6 15 8 15 16 3 6 -9 5 -19 0
-24z m1058 15 c2 -6 10 -17 17 -25 12 -11 10 -17 -9 -35 -26 -25 -41 -27 -32
-6 7 20 -11 68 -24 60 -5 -3 -10 0 -10 9 0 17 52 15 58 -3z m-1758 0 c0 -12
-20 -25 -27 -18 -7 7 6 27 18 27 5 0 9 -4 9 -9z m1971 -6 c-1 -15 -24 -12 -29
3 -3 9 2 13 12 10 10 -1 17 -7 17 -13z m-116 -5 c3 -5 1 -10 -4 -10 -6 0 -11
5 -11 10 0 6 2 10 4 10 3 0 8 -4 11 -10z m-3745 -26 c0 -16 -62 -64 -83 -64
-13 0 -28 -5 -35 -12 -8 -8 -12 -8 -12 -1 0 17 26 34 44 27 9 -4 16 -1 16 6 0
6 10 20 23 31 22 18 47 25 47 13z m3439 -72 c6 -34 9 -67 6 -72 -13 -20 -66
-41 -88 -34 -46 14 -49 51 -7 92 17 17 30 37 30 46 0 19 31 50 40 39 3 -4 12
-36 19 -71z m-1217 38 c-6 -16 -11 -20 -16 -11 -4 6 -2 19 5 27 16 20 21 12
11 -16z m104 8 c12 -28 8 -55 -11 -61 -16 -7 -29 35 -20 64 8 25 20 24 31 -3z
m3134 2 c0 -13 -5 -18 -15 -14 -8 4 -15 12 -15 20 0 8 7 14 15 14 8 0 15 -9
15 -20z m-1580 1 c0 -5 -5 -11 -12 -13 -19 -7 -58 3 -52 13 7 12 64 12 64 0z
m-2902 -19 c21 -14 3 -44 -22 -36 -29 9 -31 11 -16 29 14 17 20 18 38 7z m980
-14 c-6 -18 -28 -21 -28 -4 0 9 7 16 16 16 9 0 14 -5 12 -12z m217 -7 c-5 -16
0 -20 27 -24 31 -4 31 -5 10 -12 -20 -7 -23 -13 -18 -38 4 -17 11 -34 17 -38
6 -3 2 -9 -10 -12 -15 -3 -25 1 -32 14 -13 25 -28 16 -22 -14 3 -14 -3 -29
-16 -41 -13 -12 -21 -31 -21 -52 0 -27 -5 -34 -32 -43 -37 -13 -45 -7 -50 34
-2 25 1 31 20 33 25 4 26 6 11 34 -13 24 1 38 41 38 19 0 21 3 12 12 -18 18
-14 38 8 38 22 0 26 10 9 27 -8 8 -6 18 7 37 23 31 48 35 39 7z m1355 -1 c0
-5 -4 -10 -10 -10 -5 0 -10 5 -10 10 0 6 5 10 10 10 6 0 10 -4 10 -10z m-1238
-45 c4 -37 0 -43 -20 -23 -17 17 -15 58 2 58 8 0 15 -14 18 -35z m1518 31 c0
-3 -4 -8 -10 -11 -5 -3 -10 -1 -10 4 0 6 5 11 10 11 6 0 10 -2 10 -4z m-257
-20 c17 6 22 -4 18 -34 -1 -8 2 -19 8 -26 6 -7 6 -17 1 -26 -4 -7 -4 -24 1
-37 5 -14 6 -35 3 -49 -3 -13 -1 -30 5 -37 13 -16 3 -87 -13 -88 -21 -2 -61 3
-71 9 -5 4 -16 7 -24 7 -29 0 -21 23 10 29 27 5 30 8 19 21 -7 9 -14 25 -15
38 -1 12 -3 26 -4 30 0 5 -10 5 -21 2 -14 -4 -20 -2 -20 8 0 9 6 17 12 19 7 3
13 15 13 29 0 15 8 28 23 34 14 6 22 18 21 30 -3 41 1 61 9 47 5 -7 16 -10 25
-6z m-1515 -13 c2 -8 -5 -13 -17 -13 -12 0 -21 6 -21 16 0 18 31 15 38 -3z
m-1378 -8 c0 -8 -4 -15 -10 -15 -5 0 -10 7 -10 15 0 8 5 15 10 15 6 0 10 -7
10 -15z m3240 -30 c0 -38 -13 -44 -41 -19 -16 15 -16 17 -1 34 27 29 42 24 42
-15z m-3290 -25 c-21 -40 33 -91 66 -61 12 11 135 1 128 -10 -3 -5 -1 -9 5 -9
5 0 16 -3 25 -6 13 -5 16 1 16 30 0 20 5 36 11 36 6 0 8 -7 5 -16 -4 -11 1
-18 14 -21 11 -3 18 -9 15 -13 -3 -5 -1 -11 5 -15 20 -12 10 -43 -16 -49 -21
-6 -23 -10 -14 -21 9 -11 6 -17 -14 -30 -36 -24 -61 -64 -47 -78 6 -6 11 -19
11 -30 0 -15 -6 -18 -32 -15 -30 3 -32 1 -34 -30 -1 -18 -11 -43 -22 -55 -14
-16 -18 -31 -15 -55 4 -25 0 -42 -16 -63 -12 -16 -19 -33 -16 -38 3 -5 -1 -12
-7 -14 -8 -3 -6 -6 5 -6 9 -1 17 6 17 14 0 9 9 15 24 15 24 0 36 16 36 48 0
26 14 42 39 47 l22 4 -21 -35 c-12 -19 -22 -50 -23 -69 -1 -27 -7 -37 -29 -48
l-28 -14 25 -13 c32 -17 32 -28 0 -36 -14 -3 -30 -14 -35 -24 -12 -23 -13 -33
-1 -26 4 3 16 -3 26 -14 14 -16 15 -20 4 -20 -8 0 -27 -12 -44 -27 -16 -16
-38 -33 -50 -39 -12 -6 -19 -18 -17 -30 2 -10 6 -51 9 -89 4 -57 2 -73 -11
-84 -10 -8 -16 -29 -16 -53 0 -42 -49 -154 -77 -175 -16 -12 -70 -7 -87 8 -5
4 0 23 12 42 24 42 88 200 97 242 4 17 13 47 21 68 20 54 18 69 -8 65 -20 -3
-23 -9 -25 -53 -1 -52 -10 -81 -61 -200 -46 -110 -70 -153 -92 -165 -11 -6
-20 -8 -20 -5 0 3 16 44 35 91 19 46 35 97 35 112 0 15 4 32 8 37 13 14 54
115 57 139 3 27 15 57 29 75 12 16 9 70 -6 88 -7 8 -3 16 11 25 24 15 28 38 7
38 -7 0 -18 -12 -24 -27 -18 -49 -22 -57 -40 -87 -25 -42 -47 -47 -38 -10 4
16 14 34 22 40 16 13 19 34 4 34 -5 0 -10 6 -10 14 0 7 -7 19 -16 27 -8 7 -13
20 -11 30 3 11 -2 19 -14 22 -21 6 -16 37 5 37 7 0 18 11 24 25 13 27 42 34
42 10 0 -21 18 -19 22 3 2 13 19 19 73 27 58 8 70 13 73 30 4 27 -17 52 -48
60 -22 5 -27 1 -42 -35 -27 -61 -49 -52 -24 10 3 8 2 21 -3 29 -8 12 -12 12
-25 2 -8 -7 -20 -10 -26 -6 -9 6 -15 -8 -11 -29 3 -13 -20 -26 -48 -26 -22 0
-23 1 -7 25 21 31 20 35 -4 35 -17 0 -37 -22 -38 -43 -1 -13 -80 -67 -97 -67
-19 0 -19 14 0 30 8 7 15 19 15 26 0 8 6 14 13 15 6 0 24 24 39 54 23 45 26
59 18 87 -14 45 -13 47 15 60 16 7 25 19 25 34 0 12 7 30 16 38 27 28 60 19
98 -25 25 -29 40 -40 52 -35 10 4 22 -1 30 -11 8 -11 13 -13 14 -5 0 7 13 12
30 12 20 0 30 5 30 15 0 8 6 15 14 15 23 0 29 20 12 39 -9 10 -16 26 -16 35 0
11 -5 16 -13 13 -7 -3 -29 2 -48 11 -18 8 -36 16 -39 17 -3 2 -15 6 -27 10
-29 9 -31 45 -3 45 10 0 27 11 37 24 21 29 29 26 13 -4z m4850 10 c0 -5 -4
-10 -10 -10 -5 0 -10 5 -10 10 0 6 5 10 10 10 6 0 10 -4 10 -10z m-2460 -45
c0 -31 -24 -38 -46 -13 -18 19 -18 20 0 33 24 18 46 8 46 -20z m-2785 3 c7 -7
1 -8 -19 -4 -20 5 -34 2 -47 -10 -23 -21 -25 -7 -2 18 17 19 47 17 68 -4z
m1575 -3 c-7 -8 -16 -12 -21 -9 -13 8 -1 24 18 24 13 0 13 -3 3 -15z m57 0 c3
-9 3 -19 -1 -22 -7 -7 -36 16 -36 28 0 15 30 10 37 -6z m1543 -12 c34 -29 25
-45 -22 -42 -29 3 -43 -1 -46 -11 -3 -8 -14 -22 -25 -31 -11 -9 -17 -21 -13
-27 9 -15 46 -16 46 -2 0 6 14 10 30 10 24 0 30 -4 30 -22 0 -20 1 -20 19 -4
16 15 19 15 24 2 4 -9 -2 -24 -11 -33 -29 -29 -54 -74 -49 -87 4 -9 -3 -12
-18 -10 -26 2 -39 -18 -30 -47 5 -13 1 -19 -10 -19 -8 0 -19 -10 -24 -23 -5
-13 -16 -29 -25 -36 -22 -18 -20 -31 4 -31 18 0 18 -2 -6 -37 -14 -21 -21 -39
-17 -40 14 -5 2 -77 -14 -90 -13 -10 -14 -17 -3 -43 11 -26 10 -33 -4 -49 -9
-9 -16 -30 -16 -45 0 -15 -7 -38 -16 -51 -9 -13 -13 -29 -10 -34 6 -8 -22 -31
-37 -31 -3 0 -4 89 -2 198 2 219 -8 345 -32 381 -15 24 -15 26 18 53 18 15 38
27 44 26 5 -1 22 2 38 6 28 9 37 26 13 26 -8 0 -18 4 -21 10 -10 16 18 55 40
55 15 0 19 6 17 22 -3 24 33 49 105 72 2 1 12 -7 23 -16z m-2190 -9 c0 -13
-35 -33 -57 -34 -27 0 -30 15 -5 29 19 12 62 15 62 5z m794 -21 c4 -10 -1 -25
-14 -37 -21 -22 -26 -13 -14 32 7 26 19 29 28 5z m-1846 -33 c-12 -18 -49 -40
-68 -40 -17 0 -11 36 8 52 24 21 45 27 59 16 9 -7 9 -14 1 -28z m1572 33 c-1
-18 -37 -55 -44 -45 -3 6 4 20 16 31 24 23 28 25 28 14z m-1880 -8 c0 -12 -24
-55 -31 -55 -5 0 -11 -16 -15 -35 -9 -49 -24 -54 -24 -9 0 24 9 49 26 71 22
28 44 43 44 28z m2028 -17 c7 -7 12 -19 12 -27 -1 -20 -34 -61 -49 -61 -15 0
-14 27 1 32 7 3 11 18 10 36 -2 34 6 40 26 20z m2159 0 c4 -7 8 -22 8 -34 1
-27 -31 -21 -40 7 -11 32 15 53 32 27z m-2394 -14 c3 -4 1 -16 -4 -27 -10 -18
-9 -19 15 -13 29 7 34 -5 10 -25 -9 -7 -20 -24 -25 -38 l-10 -25 -21 21 c-19
20 -20 24 -7 67 12 42 26 55 42 40z m-1323 -8 c0 -2 3 -11 6 -19 4 -11 -4 -14
-35 -13 -38 1 -39 2 -24 18 14 16 53 26 53 14z m620 -42 c0 -8 -9 -14 -20 -14
-17 0 -19 3 -8 19 13 21 28 19 28 -5z m-570 8 c0 -13 -12 -22 -22 -16 -10 6
-1 24 13 24 5 0 9 -4 9 -8z m5050 -2 c0 -5 -2 -10 -4 -10 -3 0 -8 5 -11 10 -3
6 -1 10 4 10 6 0 11 -4 11 -10z m-4350 -9 c0 -6 -4 -13 -10 -16 -5 -3 -10 1
-10 9 0 9 5 16 10 16 6 0 10 -4 10 -9z m-40 -16 c9 -11 2 -16 -37 -28 -26 -7
-49 -13 -51 -12 -1 2 2 13 8 26 13 28 61 36 80 14z m1480 -5 c0 -5 -4 -10 -10
-10 -5 0 -10 5 -10 10 0 6 5 10 10 10 6 0 10 -4 10 -10z m2938 -2 c7 -7 12
-18 12 -26 0 -12 -4 -11 -25 2 -13 9 -31 16 -40 16 -9 0 -13 5 -10 10 9 14 48
13 63 -2z m-5369 -29 c-22 -13 -31 -11 -17 5 7 8 17 12 22 9 4 -3 2 -9 -5 -14z
m852 -46 c19 -16 14 -53 -7 -53 -8 0 -14 5 -14 10 0 6 -7 10 -15 10 -17 0 -18
4 -9 37 6 23 15 22 45 -4z m237 16 c-2 -6 -8 -10 -13 -10 -5 0 -11 4 -13 10
-2 6 4 11 13 11 9 0 15 -5 13 -11z m1636 5 c24 -9 20 -44 -4 -44 -15 0 -20 7
-20 25 0 27 1 28 24 19z m-1729 -13 c3 -5 0 -13 -6 -17 -6 -3 -14 -1 -18 5 -5
8 -13 5 -26 -9 -21 -24 -39 -17 -25 11 11 20 64 27 75 10z m174 0 c9 -6 10
-10 2 -16 -15 -8 -41 1 -41 15 0 12 20 13 39 1z m2861 -5 c0 -19 -14 -28 -34
-20 -25 10 -19 34 9 34 15 0 25 -6 25 -14z m-610 -6 c0 -5 -4 -10 -10 -10 -5
0 -10 5 -10 10 0 6 5 10 10 10 6 0 10 -4 10 -10z m-494 -15 c-8 -22 3 -45 20
-38 8 3 12 9 9 13 -6 10 14 25 21 17 3 -3 -20 -54 -51 -114 -77 -149 -93 -176
-110 -189 -9 -7 -15 -16 -13 -20 5 -19 -16 -60 -64 -126 -27 -39 -53 -79 -58
-91 -4 -12 -22 -37 -39 -55 -17 -18 -35 -40 -41 -50 -10 -14 -10 -13 -4 8 3
14 7 39 8 55 1 17 12 53 25 80 16 34 24 72 26 120 2 54 9 82 30 119 26 47 26
48 5 53 -15 4 -19 10 -14 22 4 9 7 28 6 43 -1 20 3 26 13 21 8 -3 17 2 21 10
3 9 12 13 20 10 9 -3 15 2 16 13 2 34 3 39 12 52 4 7 14 11 22 8 7 -3 21 2 30
12 10 9 29 15 44 14 18 -2 30 2 33 12 4 9 14 16 23 16 10 0 14 -5 10 -15z
m617 -5 c4 -16 -2 -22 -34 -31 -45 -14 -50 -11 -43 18 9 35 69 45 77 13z
m-1133 0 c0 -11 -30 -21 -41 -14 -17 10 -9 22 16 22 14 0 25 -4 25 -8z m-2180
-21 c0 -5 -9 -9 -20 -9 -17 0 -19 2 -8 14 13 14 28 12 28 -5z m3155 0 c-4 -5
-13 -9 -22 -9 -13 0 -13 3 -3 15 13 15 35 11 25 -6z m2005 6 c0 -17 -2 -18
-25 -9 -13 5 -14 8 -3 15 19 13 28 11 28 -6z m-2923 -16 c14 -14 -33 -79 -57
-79 -10 0 -11 3 -3 8 6 4 15 21 19 37 11 49 20 55 41 34z m1098 -9 c7 -12 -12
-50 -25 -50 -6 0 -10 14 -10 30 0 30 21 42 35 20z m-3325 -32 c0 -5 -7 -8 -15
-8 -8 0 -15 -4 -15 -10 0 -5 -4 -10 -10 -10 -16 0 -12 22 8 40 16 16 31 10 32
-12z m5091 2 c5 0 9 7 9 16 0 9 7 14 17 12 27 -5 26 -27 -1 -34 -14 -3 -26
-10 -26 -15 0 -12 -32 -49 -42 -49 -5 0 -8 7 -8 15 0 8 -9 15 -21 15 -11 0
-18 4 -15 9 3 5 19 7 36 5 28 -3 30 -1 31 29 1 17 3 24 6 15 2 -10 9 -18 14
-18z m-1881 -12 c0 -5 -11 -8 -25 -8 -29 0 -33 15 -8 29 17 9 32 -1 33 -21z
m-3310 13 c0 -10 -30 -24 -37 -17 -3 3 -2 9 2 15 8 13 35 15 35 2z m2200 -7
c0 -8 -4 -12 -10 -9 -5 3 -10 10 -10 16 0 5 5 9 10 9 6 0 10 -7 10 -16z
m-1022 -6 c22 -2 12 -23 -18 -36 -16 -8 -30 -20 -30 -28 0 -8 -7 -14 -15 -14
-20 0 -19 -17 2 -29 17 -9 17 -11 0 -45 -9 -20 -17 -44 -17 -54 -1 -9 -18 -48
-39 -87 -28 -50 -45 -71 -61 -73 -20 -3 -22 0 -17 20 4 12 7 31 7 42 0 15 6
17 30 14 29 -4 34 1 31 29 -1 6 3 14 9 18 16 10 12 42 -6 49 -9 3 -29 6 -45 6
-35 0 -40 27 -6 32 17 2 21 9 19 31 -2 23 1 27 23 27 20 0 25 5 25 25 0 14 -4
25 -10 25 -5 0 -10 5 -10 10 0 6 15 9 32 8 28 -3 34 1 36 20 3 19 8 23 25 17
12 -3 28 -7 35 -7z m2187 2 c3 -5 2 -10 -4 -10 -5 0 -13 5 -16 10 -3 6 -2 10
4 10 5 0 13 -4 16 -10z m-2520 -30 c6 -10 -44 -35 -53 -26 -2 3 -2 12 1 21 7
17 42 21 52 5z m2425 0 c0 -5 -10 -10 -22 -10 -19 0 -20 2 -8 10 19 13 30 13
30 0z m-1500 -27 c0 -16 -5 -35 -10 -43 -7 -11 -10 -4 -10 28 0 23 5 42 10 42
6 0 10 -12 10 -27z m1658 -4 c-1 -17 -6 -33 -10 -35 -12 -7 -10 -44 2 -44 16
0 11 -37 -6 -44 -26 -10 -36 -7 -30 10 3 9 3 21 -1 27 -16 26 -13 92 4 105 29
21 44 15 41 -19z m-2408 5 c0 -8 -5 -12 -10 -9 -6 4 -8 11 -5 16 9 14 15 11
15 -7z m4100 6 c0 -5 -4 -10 -10 -10 -5 0 -10 5 -10 10 0 6 5 10 10 10 6 0 10
-4 10 -10z m-2874 -59 c-15 -22 -30 -41 -35 -41 -5 0 -12 -11 -15 -24 -7 -28
-53 -86 -68 -86 -19 0 -37 -34 -32 -60 4 -20 -8 -39 -63 -96 -60 -63 -76 -75
-136 -94 -66 -21 -97 -21 -97 -1 0 5 9 13 21 16 11 4 18 12 16 19 -3 6 1 20 8
30 8 10 11 25 8 33 -6 15 20 43 38 43 4 0 12 -14 18 -31 9 -28 12 -29 26 -16
20 21 19 38 -2 31 -11 -3 -6 4 11 19 17 15 24 27 18 31 -6 4 -9 13 -5 21 3 8
0 15 -6 15 -6 0 -11 4 -11 9 0 6 16 7 35 4 26 -4 36 -2 41 11 3 9 16 16 28 16
31 0 50 15 43 35 -4 9 -3 13 3 10 16 -10 42 40 34 69 -5 20 -2 26 11 26 9 0
23 7 32 16 9 8 21 13 28 10 7 -2 23 6 36 20 35 37 45 13 15 -35z m1027 45 c3
-12 -30 -32 -39 -24 -11 12 5 40 21 36 9 -2 17 -7 18 -12z m-3073 -46 l25 -20
-22 0 c-13 0 -26 0 -30 0 -5 0 -9 9 -9 20 -2 25 4 25 36 0z m570 10 c0 -5 -7
-7 -15 -4 -8 4 -15 8 -15 10 0 2 7 4 15 4 8 0 15 -4 15 -10z m1700 -16 c0 -8
-9 -14 -20 -14 -22 0 -26 10 -8 28 13 13 28 7 28 -14z m2760 22 c0 -11 -19
-15 -25 -6 -3 5 1 10 9 10 9 0 16 -2 16 -4z m-5054 -90 c-2 -36 -29 -76 -53
-76 -19 0 -16 12 12 54 14 20 25 41 25 46 0 6 4 10 8 10 5 0 8 -15 8 -34z
m2294 27 c0 -11 -12 -26 -35 -43 -19 -14 -20 -14 -2 6 9 11 17 26 17 32 0 7 5
12 10 12 6 0 10 -3 10 -7z m-1822 -16 c16 -19 -2 -40 -27 -32 -21 6 -28 25
-14 38 10 11 30 8 41 -6z m3452 2 c0 -5 5 -7 10 -4 6 3 10 -1 10 -9 0 -23 -33
-20 -48 4 -11 18 -10 20 8 20 11 0 20 -5 20 -11z m-60 -13 c0 -2 -7 -6 -15
-10 -8 -3 -15 -1 -15 4 0 6 7 10 15 10 8 0 15 -2 15 -4z m-2052 -25 c3 -8 -1
-12 -9 -9 -7 2 -15 10 -17 17 -3 8 1 12 9 9 7 -2 15 -10 17 -17z m3262 -12 c0
-18 -2 -20 -15 -9 -13 11 -13 15 -3 21 18 12 18 12 18 -12z m-4220 7 c0 -3 -4
-8 -10 -11 -5 -3 -10 -1 -10 4 0 6 5 11 10 11 6 0 10 -2 10 -4z m2390 -14 c0
-10 -21 -32 -31 -32 -4 0 -5 9 -2 20 5 19 33 29 33 12z m-960 -32 c0 -16 -5
-30 -11 -30 -6 0 -8 9 -4 20 4 11 2 20 -4 20 -6 0 -11 5 -11 10 0 6 7 10 15
10 10 0 15 -10 15 -30z m-2400 11 c0 -12 -20 -25 -27 -18 -7 7 6 27 18 27 5 0
9 -4 9 -9z m980 -1 c0 -5 -4 -10 -10 -10 -5 0 -10 5 -10 10 0 6 5 10 10 10 6
0 10 -4 10 -10z m2041 -17 c-12 -20 -14 -14 -5 12 4 9 9 14 11 11 3 -2 0 -13
-6 -23z m1008 -13 c-14 -9 -29 -4 -29 10 0 12 34 18 39 7 2 -5 -3 -13 -10 -17z
m-529 6 c0 -8 -7 -16 -15 -20 -17 -6 -18 -4 -9 18 8 20 24 21 24 2z m1682 -8
c-7 -7 -12 -8 -12 -2 0 14 12 26 19 19 2 -3 -1 -11 -7 -17z m-4552 -72 c0 -11
-5 -15 -12 -12 -7 3 -20 9 -30 12 -20 7 -29 39 -16 52 12 12 58 -29 58 -52z
m-540 24 c0 -11 -1 -20 -3 -20 -1 0 -17 -4 -34 -9 -37 -11 -41 2 -8 31 27 23
45 22 45 -2z m446 -85 c-10 -8 -24 -11 -29 -8 -6 4 -2 10 9 14 31 12 40 9 20
-6z m414 6 c0 -10 -62 -102 -110 -162 -59 -74 -147 -156 -156 -146 -11 11 52
167 67 167 7 0 9 11 6 30 -7 31 10 52 23 29 7 -10 14 -11 36 0 22 10 25 14 13
21 -7 5 -22 7 -32 4 -20 -6 -50 13 -41 28 3 5 19 6 35 3 21 -5 31 -2 35 9 4
10 18 15 40 14 19 -1 37 2 41 5 9 10 43 8 43 -2z m4240 -1 c0 -5 -4 -10 -10
-10 -5 0 -10 5 -10 10 0 6 5 10 10 10 6 0 10 -4 10 -10z m-1676 -15 c-4 -8
-12 -15 -20 -15 -17 0 -18 17 -1 23 22 9 27 7 21 -8z m-196 -27 c-6 -18 -15
-37 -21 -43 -7 -7 -8 -4 -3 8 3 10 6 30 6 43 0 14 6 24 14 24 12 0 13 -6 4
-32z m-1308 13 c0 -13 -29 -41 -41 -41 -10 0 -5 13 14 38 11 14 27 16 27 3z
m2150 -21 c0 -5 -4 -10 -9 -10 -6 0 -13 5 -16 10 -3 6 1 10 9 10 9 0 16 -4 16
-10z m-2418 -22 c-6 -6 -15 -8 -19 -4 -4 4 -1 11 7 16 19 12 27 3 12 -12z
m-1182 -13 c0 -32 -52 -117 -110 -177 -58 -62 -59 -62 -49 -28 6 19 13 53 15
75 4 27 15 50 35 69 16 16 29 39 29 52 0 21 5 24 40 24 29 0 40 -4 40 -15z
m1830 2 c0 -8 -9 -22 -20 -32 -11 -10 -20 -26 -20 -36 0 -10 -4 -21 -10 -24
-19 -12 -10 39 13 72 23 35 37 42 37 20z m1050 -2 c10 -12 10 -15 -4 -15 -9 0
-16 7 -16 15 0 8 2 15 4 15 2 0 9 -7 16 -15z m728 -3 c2 -7 -3 -12 -12 -12 -9
0 -16 7 -16 16 0 17 22 14 28 -4z m-4571 -9 c-9 -9 -20 -13 -24 -9 -4 4 -1 11
7 16 25 16 35 11 17 -7z m3878 7 c3 -5 1 -10 -4 -10 -6 0 -11 5 -11 10 0 6 2
10 4 10 3 0 8 -4 11 -10z m105 -8 c0 -5 -7 -17 -16 -28 -14 -17 -15 -17 -10
-1 3 10 6 23 6 28 0 5 5 9 10 9 6 0 10 -4 10 -8z m-1729 -35 c-28 -30 -110
-69 -96 -46 8 12 108 79 119 79 6 0 -5 -15 -23 -33z m-1186 -47 c-3 -33 -14
-86 -26 -118 -11 -31 -29 -81 -40 -111 -25 -71 -33 -79 -82 -83 -45 -3 -53
-19 -15 -29 20 -5 19 -6 -11 -12 -51 -11 -183 -9 -176 3 3 5 32 12 65 16 58 6
84 24 37 24 -39 0 -38 11 6 63 60 71 109 136 138 182 44 73 92 134 100 129 4
-2 6 -31 4 -64z m3505 34 c0 -22 -3 -25 -22 -20 -13 3 -26 6 -30 6 -17 0 -7
21 15 30 34 13 37 12 37 -16z m-2460 10 c0 -17 -22 -42 -34 -38 -7 3 -16 -2
-19 -10 -8 -21 -47 -41 -47 -24 1 24 53 78 77 78 13 0 23 -3 23 -6z m1164 -39
c3 -8 1 -15 -4 -15 -6 0 -10 7 -10 15 0 8 2 15 4 15 2 0 6 -7 10 -15z m-3259
-17 c-3 -13 -9 -44 -15 -71 -6 -26 -22 -81 -36 -121 -14 -41 -24 -80 -23 -88
2 -7 -3 -24 -10 -37 -8 -14 -9 -27 -4 -32 13 -13 3 -71 -11 -66 -16 5 -9 233
9 267 7 14 16 44 20 65 8 40 48 105 66 105 5 0 7 -10 4 -22z m2105 -22 c0 -7
-80 -46 -93 -46 -22 1 47 50 71 50 12 0 22 -2 22 -4z m2471 -18 c1 -13 2 -40
3 -61 2 -24 -1 -36 -8 -34 -6 2 -12 15 -12 28 -1 13 -5 39 -9 57 -6 26 -4 32
9 32 10 0 16 -9 17 -22z m989 2 c-8 -5 -19 -10 -25 -10 -5 0 -3 5 5 10 8 5 20
10 25 10 6 0 3 -5 -5 -10z m-4694 -78 c-26 -31 -59 -73 -74 -93 -27 -37 -60
-64 -68 -56 -6 5 97 140 145 190 53 56 51 25 -3 -41z m4659 48 c-3 -5 -12 -10
-18 -10 -7 0 -6 4 3 10 19 12 23 12 15 0z m-5022 -24 c3 -8 -2 -25 -12 -38
-10 -13 -21 -36 -25 -52 -4 -15 -14 -40 -24 -54 l-16 -25 -6 24 c-5 17 -1 28
13 38 11 8 17 21 14 32 -3 11 -1 19 4 19 5 0 9 4 9 9 0 19 20 61 29 61 5 0 11
-6 14 -14z m1046 -52 c-45 -46 -55 -49 -44 -13 5 14 10 18 15 10 4 -8 11 -2
20 19 14 33 42 56 49 38 2 -5 -16 -30 -40 -54z m1711 16 c-6 -11 -13 -20 -15
-20 -3 0 -5 9 -5 20 0 11 7 20 15 20 13 0 14 -4 5 -20z m716 5 c-23 -17 -36
-19 -36 -6 0 5 8 12 18 14 32 9 37 6 18 -8z m-2502 -72 c-8 -35 -7 -33 -21
-25 -16 10 -5 52 13 52 11 0 13 -7 8 -27z m1756 20 c0 -3 -7 -15 -17 -25 -20
-23 -48 -24 -39 -2 3 9 6 20 6 25 0 5 11 9 25 9 14 0 25 -3 25 -7z m730 -3 c0
-5 -7 -10 -15 -10 -8 0 -15 5 -15 10 0 6 7 10 15 10 8 0 15 -4 15 -10z m0 -35
c0 -8 -4 -15 -10 -15 -5 0 -10 7 -10 15 0 8 5 15 10 15 6 0 10 -7 10 -15z
m1600 -5 c0 -5 -9 -10 -21 -10 -11 0 -17 5 -14 10 3 6 13 10 21 10 8 0 14 -4
14 -10z m-997 -102 c-6 -44 -18 -67 -29 -55 -4 4 -2 18 4 32 7 14 12 35 12 45
0 11 4 20 9 20 5 0 7 -19 4 -42z m-3963 -13 c0 -21 -19 -27 -71 -23 -41 3 -42
4 -25 21 23 22 96 24 96 2z m4957 -1 c-3 -3 -12 -4 -19 -1 -8 3 -5 6 6 6 11 1
17 -2 13 -5z m-57 -34 c0 -5 -2 -10 -4 -10 -3 0 -8 5 -11 10 -3 6 -1 10 4 10
6 0 11 -4 11 -10z m-4190 -14 c0 -14 -29 -31 -38 -21 -6 6 18 35 29 35 5 0 9
-6 9 -14z m2875 4 c3 -6 -1 -7 -9 -4 -18 7 -21 14 -7 14 6 0 13 -4 16 -10z
m1215 6 c0 -2 -7 -7 -16 -10 -8 -3 -12 -2 -9 4 6 10 25 14 25 6z m-5015 -44
c-16 -15 -22 -18 -14 -7 24 33 34 43 38 39 3 -3 -8 -17 -24 -32z m4157 6 c-7
-7 -12 -8 -12 -2 0 14 12 26 19 19 2 -3 -1 -11 -7 -17z m-344 0 c-2 -6 -15
-13 -27 -15 -20 -3 -22 -1 -11 12 15 18 43 20 38 3z m1297 -7 l40 -9 -50 0
c-27 0 -59 3 -70 8 -17 7 -16 9 10 9 17 0 48 -4 70 -8z m-1350 -40 c3 -5 -4
-13 -16 -16 -23 -8 -34 -1 -24 14 8 13 32 14 40 2z m-4242 -63 c-7 -87 -23
-98 -23 -17 0 36 3 69 7 72 16 17 21 2 16 -55z m5487 9 c0 -5 -4 -5 -10 -2 -5
3 -10 14 -10 23 0 15 2 15 10 2 5 -8 10 -19 10 -23z m95 3 c-27 -12 -35 -12
-35 0 0 6 12 10 28 9 24 0 25 -1 7 -9z m-1385 -39 c0 -5 -5 -22 -10 -36 -6
-15 -8 -31 -4 -36 7 -12 44 8 44 25 0 7 10 22 23 34 19 18 30 21 75 15 38 -4
55 -12 66 -28 22 -34 48 -132 41 -156 -4 -11 -8 -46 -9 -77 -3 -67 -51 -176
-103 -234 -57 -64 -179 -118 -198 -88 -10 16 -54 11 -76 -8 -12 -12 -20 -33
-21 -56 -1 -29 -6 -38 -25 -42 -25 -7 -46 -39 -57 -89 -11 -46 -50 -145 -58
-145 -9 0 -2 45 15 95 12 39 59 131 97 190 10 17 19 42 19 57 1 15 5 37 10 50
5 13 19 55 31 93 12 39 35 105 51 147 16 43 29 93 29 112 0 33 26 162 36 178
7 11 24 10 24 -1z m-3834 -26 c-22 -17 -36 -19 -36 -7 0 14 12 22 34 22 21 -1
21 -1 2 -15z m5067 -16 c-6 -6 -19 -9 -29 -6 -17 3 -16 5 6 14 28 12 39 8 23
-8z m10 -65 c-2 -6 -13 -10 -23 -7 -10 3 -29 -2 -42 -11 -25 -18 -73 -22 -63
-6 3 6 15 10 26 10 10 0 19 4 19 9 0 11 22 17 62 17 16 1 24 -4 21 -12z m-133
-104 c0 -5 -4 -10 -10 -10 -5 0 -10 5 -10 10 0 6 5 10 10 10 6 0 10 -4 10 -10z
m-1230 -42 c0 -27 -38 -108 -51 -108 -5 0 -9 5 -9 10 0 6 5 10 10 10 7 0 7 6
0 20 -6 11 -7 20 -2 20 6 0 17 12 27 26 14 22 15 28 4 35 -11 7 -10 9 4 9 11
0 17 -8 17 -22z m1333 -24 c-6 -15 -50 -30 -60 -21 -3 4 5 17 18 31 25 26 53
19 42 -10z m-83 -34 c-19 -12 -40 -13 -40 0 0 5 8 13 18 19 22 13 44 -5 22
-19z m30 -40 c0 -5 -7 -7 -15 -4 -8 4 -12 10 -9 15 6 11 24 2 24 -11z m-4970
-40 c0 -5 -5 -10 -11 -10 -5 0 -7 5 -4 10 3 6 8 10 11 10 2 0 4 -4 4 -10z
m3630 -39 c0 -6 -4 -13 -10 -16 -5 -3 -10 1 -10 9 0 9 5 16 10 16 6 0 10 -4
10 -9z m1320 -6 c0 -10 -11 -15 -35 -15 -54 0 -43 27 13 29 13 1 22 -5 22 -14z
m-938 -17 c-7 -7 -12 -8 -12 -2 0 14 12 26 19 19 2 -3 -1 -11 -7 -17z m773
-79 c-4 -5 -23 -8 -43 -8 -27 1 -31 3 -12 6 14 3 29 9 34 13 11 11 28 2 21
-11z m-1199 -15 c-4 -9 -9 -15 -11 -12 -3 3 -3 13 1 22 4 9 9 15 11 12 3 -3 3
-13 -1 -22z m1289 -44 c-3 -5 -10 -10 -16 -10 -5 0 -9 5 -9 10 0 6 7 10 16 10
8 0 12 -4 9 -10z m-1314 -27 c-12 -20 -14 -14 -5 12 4 9 9 14 11 11 3 -2 0
-13 -6 -23z m300 9 c-13 -9 -36 -28 -50 -42 -33 -32 -78 -53 -86 -40 -8 13 43
60 64 60 9 1 32 9 51 20 43 24 53 25 21 2z m-3997 -73 c-2 -4 3 -12 11 -19 8
-7 12 -16 9 -21 -9 -15 6 -49 22 -49 8 0 12 -4 9 -10 -3 -5 -2 -10 3 -10 5 0
14 -12 21 -26 11 -25 13 -25 35 -11 22 15 24 14 60 -33 21 -27 47 -50 58 -52
27 -4 35 -25 11 -31 -10 -3 -4 -5 14 -6 40 -1 53 -23 47 -77 -4 -33 -1 -42 21
-57 23 -17 26 -17 32 -1 3 9 1 26 -6 37 -10 16 -10 21 0 28 10 6 8 13 -10 28
-22 19 -23 24 -12 48 9 19 9 29 2 31 -17 6 -13 22 6 22 9 0 13 -3 10 -6 -4 -4
2 -19 13 -34 11 -16 20 -31 20 -34 0 -3 18 -43 40 -88 22 -46 40 -86 40 -90 0
-5 -9 -8 -20 -8 -25 0 -27 -20 -2 -21 36 -3 42 -4 42 -11 0 -5 0 -11 0 -16 0
-4 -17 -6 -39 -4 -31 3 -38 7 -34 21 4 15 -8 20 -86 31 -49 7 -106 10 -125 7
-25 -4 -36 -1 -40 10 -10 24 -7 32 16 44 18 10 20 9 15 -5 -6 -14 -3 -15 13
-6 42 22 9 55 -44 44 -25 -4 -43 -2 -59 9 -15 9 -40 13 -72 11 -44 -3 -47 -2
-29 11 10 8 15 15 10 15 -5 0 -1 9 9 20 22 25 14 36 -13 19 -17 -10 -23 -10
-37 5 -23 23 -45 4 -45 -37 0 -24 -3 -28 -12 -19 -7 7 -22 12 -34 12 -13 0
-25 4 -29 10 -3 5 -12 7 -20 3 -8 -3 -15 0 -15 7 0 7 14 10 41 9 30 -3 43 1
50 13 8 15 5 17 -25 13 -19 -3 -38 0 -41 6 -10 15 -5 17 38 22 34 3 65 17 39
17 -7 0 -12 8 -12 19 0 14 10 21 35 25 20 4 41 4 48 -1 21 -13 109 9 94 24 -3
2 -14 0 -25 -6 -15 -8 -31 -7 -64 5 -23 9 -53 16 -65 15 -15 0 -23 5 -23 15 0
27 20 54 40 54 26 0 26 16 0 30 -19 10 -19 13 -5 40 9 17 24 36 35 43 11 6 20
19 21 27 1 8 5 -1 9 -20 5 -19 7 -37 4 -41z m4986 51 c0 -5 -2 -10 -4 -10 -3
0 -8 5 -11 10 -3 6 -1 10 4 10 6 0 11 -4 11 -10z m-4752 -29 c3 -8 -1 -12 -9
-9 -7 2 -15 10 -17 17 -3 8 1 12 9 9 7 -2 15 -10 17 -17z m4512 -35 c0 -20 4
-23 34 -20 24 1 33 -2 30 -10 -5 -13 -74 -16 -74 -3 0 4 -7 7 -15 7 -8 0 -15
-7 -15 -15 0 -8 -9 -15 -20 -15 -11 0 -20 -5 -20 -11 0 -5 -4 -7 -10 -4 -5 3
-10 17 -10 31 0 23 11 28 58 27 6 -1 12 8 12 18 0 11 7 19 15 19 9 0 15 -9 15
-24z m-4480 -38 c0 -7 9 -26 20 -43 11 -16 20 -39 20 -50 -1 -19 -2 -19 -20 4
-11 13 -20 33 -20 45 0 12 -7 31 -15 42 -20 26 -20 51 0 30 8 -8 15 -21 15
-28z m3707 -70 c-3 -7 -5 -2 -5 12 0 14 2 19 5 13 2 -7 2 -19 0 -25z m724 -1
c-1 -12 -15 -9 -19 4 -3 6 1 10 8 8 6 -3 11 -8 11 -12z m-4821 -77 c0 -5 -7
-10 -15 -10 -8 0 -15 5 -15 10 0 6 7 10 15 10 8 0 15 -4 15 -10z m3770 -76 c0
-16 -23 -44 -35 -44 -19 0 -19 9 2 32 16 17 33 24 33 12z m-3675 -44 c4 -6 -5
-10 -19 -10 -14 0 -26 5 -26 10 0 6 9 10 19 10 11 0 23 -4 26 -10z m4645 -20
c0 -5 -7 -10 -15 -10 -8 0 -15 5 -15 10 0 6 7 10 15 10 8 0 15 -4 15 -10z m50
0 c-8 -5 -19 -10 -25 -10 -5 0 -3 5 5 10 8 5 20 10 25 10 6 0 3 -5 -5 -10z
m-4555 -78 c-3 -3 -11 0 -18 7 -9 10 -8 11 6 5 10 -3 15 -9 12 -12z m-139 -40
c-4 -3 -12 0 -19 7 -9 9 -9 14 3 21 11 7 16 5 18 -6 2 -9 1 -18 -2 -22z m122
32 c23 -3 42 -9 42 -14 0 -11 -93 -19 -104 -8 -6 4 -18 8 -28 8 -10 0 -18 4
-18 8 0 10 49 13 108 6z m2343 -74 c9 -31 10 -43 1 -52 -7 -7 -12 -23 -12 -36
0 -16 -5 -23 -17 -21 -10 1 -35 1 -55 0 -35 -1 -39 -4 -67 -59 -35 -69 -50
-83 -79 -75 -18 4 -22 13 -22 44 0 74 -50 56 -93 -33 -29 -60 -101 -87 -242
-93 -33 -1 -85 -8 -117 -15 -49 -11 -60 -10 -89 4 -17 9 -43 16 -57 16 -25 0
-62 -37 -74 -74 -5 -17 -6 -18 -7 -3 -1 21 -21 23 -21 2 0 -21 -3 -19 -40 15
-18 17 -38 30 -46 30 -7 0 -11 6 -8 14 3 8 1 30 -4 50 -10 36 -10 36 21 38 18
0 43 2 57 3 14 0 61 13 105 27 44 15 109 32 145 37 36 6 81 15 100 20 19 5 62
15 95 21 33 7 65 16 70 21 6 4 33 13 59 19 59 13 185 61 281 106 93 43 102 43
116 -6z m-2183 18 c-6 -18 -28 -21 -28 -4 0 9 7 16 16 16 9 0 14 -5 12 -12z
m3912 -8 c-8 -5 -18 -6 -24 -3 -5 4 -1 10 10 13 24 9 34 2 14 -10z m-3827 -26
c-4 -12 -8 -13 -14 -3 -9 15 -2 32 11 24 5 -3 6 -13 3 -21z m3981 -7 c-9 -25
-34 -29 -34 -6 0 11 4 18 9 14 5 -3 13 0 16 6 10 15 17 5 9 -14z m-3969 -37
c-5 -8 -58 -5 -92 6 -30 8 -30 28 0 21 12 -4 29 -2 36 3 15 9 64 -16 56 -30z
m3925 20 c3 -1 -4 -5 -15 -9 -22 -9 -38 -4 -30 9 4 7 22 7 45 0z m-4080 -24
c0 -2 -7 -6 -15 -10 -8 -3 -15 -1 -15 4 0 6 7 10 15 10 8 0 15 -2 15 -4z m540
-25 c0 -6 -10 -17 -22 -25 -16 -11 -25 -13 -35 -4 -18 14 -16 26 5 31 31 8 52
7 52 -2z m-322 -20 c3 -8 -1 -12 -9 -9 -7 2 -15 10 -17 17 -3 8 1 12 9 9 7 -2
15 -10 17 -17z m32 -25 c0 -2 -7 -6 -15 -10 -8 -3 -15 -1 -15 4 0 6 7 10 15
10 8 0 15 -2 15 -4z m1966 -78 c-8 -91 -25 -141 -26 -72 0 23 -7 57 -15 76
-14 34 -13 36 10 46 14 7 25 16 25 22 0 5 3 10 6 10 4 0 4 -37 0 -82z m1594
46 c0 -2 -7 -4 -15 -4 -8 0 -15 4 -15 10 0 5 7 7 15 4 8 -4 15 -8 15 -10z
m-56 -9 c-4 -8 -11 -12 -16 -9 -6 4 -5 10 3 15 19 12 19 11 13 -6z m111 6 c10
-17 -11 -21 -31 -6 -18 14 -18 14 3 15 12 0 24 -4 28 -9z m-3615 -21 c0 -5 -4
-10 -10 -10 -5 0 -10 5 -10 10 0 6 5 10 10 10 6 0 10 -4 10 -10z m50 0 c0 -5
-8 -10 -17 -10 -15 0 -16 2 -3 10 19 12 20 12 20 0z m3580 -44 c0 -2 -8 -10
-17 -17 -16 -13 -17 -12 -4 4 13 16 21 21 21 13z m-150 -16 c12 -8 9 -10 -12
-10 -16 0 -28 5 -28 10 0 13 20 13 40 0z m80 2 c0 -4 -9 -8 -19 -8 -11 0 -17
4 -15 8 3 4 12 8 20 8 8 0 14 -4 14 -8z m-125 -32 c3 -5 1 -11 -4 -11 -6 -1
-15 -3 -21 -4 -5 -1 -13 -3 -17 -4 -20 -4 28 -20 65 -22 40 -3 60 -18 27 -20
-8 -1 -21 -2 -27 -3 -7 -1 -22 2 -32 7 -15 7 -18 6 -13 -6 5 -13 1 -14 -24 -5
-35 12 -36 18 -4 52 26 28 40 32 50 16z m-1755 -20 c0 -5 -5 -10 -11 -10 -5 0
-7 5 -4 10 3 6 8 10 11 10 2 0 4 -4 4 -10z m-60 -49 c0 -5 -6 -12 -12 -15 -10
-5 -10 -7 0 -12 19 -9 14 -33 -6 -27 -17 4 -39 -12 -41 -30 -2 -26 -15 -57
-23 -57 -5 0 -7 9 -3 20 8 25 -9 57 -35 65 -30 10 -24 25 10 25 17 0 30 4 30
8 0 8 45 29 68 31 6 1 12 -3 12 -8z m120 -26 c0 -14 -4 -25 -10 -25 -5 0 -10
11 -10 25 0 14 5 25 10 25 6 0 10 -11 10 -25z m1420 -15 c0 -5 -18 -22 -40
-36 -29 -19 -37 -30 -28 -35 20 -13 4 -20 -31 -13 -38 8 -41 41 -3 36 26 -4
82 27 82 45 0 7 5 13 10 13 6 0 10 -4 10 -10z m102 -22 c-8 -8 -9 -4 -5 13 4
13 8 18 11 10 2 -7 -1 -18 -6 -23z m-1875 -15 c-9 -9 -19 -14 -23 -11 -10 10
6 28 24 28 15 0 15 -1 -1 -17z m535 -5 c-7 -7 -12 -8 -12 -2 0 14 12 26 19 19
2 -3 -1 -11 -7 -17z m-292 -8 c0 -5 -4 -10 -10 -10 -5 0 -10 5 -10 10 0 6 5
10 10 10 6 0 10 -4 10 -10z m-145 -20 c-3 -5 -10 -10 -16 -10 -5 0 -9 5 -9 10
0 6 7 10 16 10 8 0 12 -4 9 -10z m244 -66 c-24 -12 -39 -10 -39 6 0 11 30 18
49 12 9 -4 6 -9 -10 -18z m-1259 -64 c-12 -16 -23 -30 -26 -30 -2 0 2 14 11
30 9 17 20 30 26 30 6 0 1 -13 -11 -30z m-133 2 c-22 -25 -21 -29 8 -36 30 -8
33 -31 5 -48 -11 -7 -20 -18 -20 -24 0 -6 -9 -19 -20 -29 -11 -10 -20 -24 -20
-32 0 -7 -4 -13 -10 -13 -5 0 -10 -7 -10 -15 0 -8 -7 -15 -16 -15 -8 0 -12 -5
-9 -10 12 -19 -43 -63 -80 -64 -18 -1 -42 -10 -53 -19 -37 -34 -141 -22 -142
15 0 14 86 88 102 88 10 0 15 5 12 13 -2 7 6 19 18 26 13 6 34 18 48 26 l25
14 -32 7 c-18 4 -33 11 -33 16 0 5 4 7 9 4 5 -3 11 2 13 12 3 9 7 22 9 27 2 6
35 18 74 28 38 10 72 22 75 26 6 10 30 19 49 20 11 1 11 -3 -2 -17z m1403 -34
c0 -4 -9 -8 -21 -8 -11 0 -18 4 -15 8 3 5 12 9 21 9 8 0 15 -4 15 -9z m840
-17 c0 -12 -60 -32 -73 -24 -5 3 3 12 19 19 35 15 54 17 54 5z m-890 -10 c0
-5 -10 -11 -22 -14 -22 -6 -22 -6 -4 8 23 17 26 18 26 6z m-940 -20 c0 -12
-20 -25 -27 -18 -7 7 6 27 18 27 5 0 9 -4 9 -9z m1456 -6 c-8 -8 -16 -15 -19
-15 -2 0 -4 7 -4 15 0 8 9 15 19 15 17 0 18 -2 4 -15z m-2116 -19 c0 -3 -4 -8
-10 -11 -5 -3 -10 -1 -10 4 0 6 5 11 10 11 6 0 10 -2 10 -4z m700 -6 c0 -5 -5
-10 -11 -10 -5 0 -7 5 -4 10 3 6 8 10 11 10 2 0 4 -4 4 -10z m1220 -15 c0 -8
-4 -15 -10 -15 -5 0 -10 7 -10 15 0 8 5 15 10 15 6 0 10 -7 10 -15z m315 6
c-20 -18 -53 -22 -59 -6 -4 12 2 15 31 15 22 0 33 -4 28 -9z m-2230 -20 c5 -3
-6 -8 -25 -12 -41 -9 -48 -5 -31 15 11 13 29 13 56 -3z m1755 -31 c0 -5 -4
-10 -9 -10 -6 0 -13 5 -16 10 -3 6 1 10 9 10 9 0 16 -4 16 -10z m50 0 c0 -5
-9 -10 -20 -10 -11 0 -20 5 -20 10 0 6 9 10 20 10 11 0 20 -4 20 -10z m310 6
c0 -2 -3 -11 -6 -20 -9 -23 -24 -20 -24 4 0 11 7 20 15 20 8 0 15 -2 15 -4z
m-80 -11 c0 -2 -10 -10 -22 -16 -21 -11 -22 -11 -9 4 13 16 31 23 31 12z
m-2130 -20 c0 -7 -30 -13 -34 -7 -3 4 4 9 15 9 10 1 19 0 19 -2z m2010 -5 c0
-5 -5 -10 -11 -10 -5 0 -7 5 -4 10 3 6 8 10 11 10 2 0 4 -4 4 -10z m-2050 -24
c0 -3 -4 -8 -10 -11 -5 -3 -10 -1 -10 4 0 6 5 11 10 11 6 0 10 -2 10 -4z"/>
<path d="M298 5893 c7 -3 16 -2 19 1 4 3 -2 6 -13 5 -11 0 -14 -3 -6 -6z"/>
<path d="M1301 5871 c-10 -6 -5 -11 20 -16 22 -5 34 -4 37 4 3 8 9 6 17 -6 11
-15 15 -15 29 -4 13 11 14 16 4 22 -17 11 -89 11 -107 0z"/>
<path d="M1707 5834 c-4 -4 -7 -12 -7 -19 0 -15 34 -14 49 2 6 7 7 13 2 13 -5
0 -16 2 -23 5 -8 3 -17 2 -21 -1z"/>
<path d="M1332 5794 c-25 -20 -36 -23 -46 -14 -10 8 -16 8 -21 0 -4 -6 -15 -8
-26 -5 -20 7 -27 -9 -9 -20 16 -10 12 -21 -12 -34 -17 -8 -17 -10 -3 -5 11 4
37 6 59 5 60 -3 79 7 72 35 -5 18 -2 24 10 24 10 0 14 5 10 16 -3 8 -2 12 3 9
5 -3 12 -1 16 5 12 19 -20 10 -53 -16z"/>
<path d="M1518 5803 c7 -3 16 -2 19 1 4 3 -2 6 -13 5 -11 0 -14 -3 -6 -6z"/>
<path d="M1700 5779 c0 -5 5 -7 10 -4 6 3 10 8 10 11 0 2 -4 4 -10 4 -5 0 -10
-5 -10 -11z"/>
<path d="M1645 5760 c-3 -5 -1 -10 4 -10 6 0 11 5 11 10 0 6 -2 10 -4 10 -3 0
-8 -4 -11 -10z"/>
<path d="M1598 5730 c-7 -16 -19 -30 -25 -30 -7 0 -13 -4 -13 -8 0 -17 30 -8
36 10 3 10 9 18 14 18 12 0 21 28 10 35 -4 3 -14 -8 -22 -25z"/>
<path d="M534 5709 c-23 -8 -39 -27 -31 -35 2 -2 17 0 32 6 23 9 26 8 21 -5
-7 -20 1 -19 26 5 l22 20 -21 0 c-12 0 -23 4 -25 9 -1 5 -13 5 -24 0z"/>
<path d="M1290 5660 c0 -5 7 -7 15 -4 8 4 15 8 15 10 0 2 -7 4 -15 4 -8 0 -15
-4 -15 -10z"/>
<path d="M590 5530 c0 -5 5 -10 10 -10 6 0 10 5 10 10 0 6 -4 10 -10 10 -5 0
-10 -4 -10 -10z"/>
<path d="M390 5175 c-10 -12 -10 -15 4 -15 9 0 16 7 16 15 0 8 -2 15 -4 15 -2
0 -9 -7 -16 -15z"/>
<path d="M2620 5450 c0 -5 5 -10 11 -10 5 0 7 5 4 10 -3 6 -8 10 -11 10 -2 0
-4 -4 -4 -10z"/>
<path d="M2564 5429 c-10 -17 13 -36 27 -22 12 12 4 33 -11 33 -5 0 -12 -5
-16 -11z"/>
<path d="M2170 5355 c0 -8 5 -15 10 -15 6 0 10 7 10 15 0 8 -4 15 -10 15 -5 0
-10 -7 -10 -15z"/>
<path d="M3050 5306 c-21 -21 -11 -37 18 -30 36 9 42 13 42 29 0 15 -46 15
-60 1z"/>
<path d="M3425 5240 c-4 -6 -10 -8 -15 -5 -5 3 -12 0 -16 -6 -4 -7 -3 -9 3 -6
6 4 13 -2 16 -13 7 -26 28 -22 44 9 7 13 13 25 13 27 0 9 -39 3 -45 -6z"/>
<path d="M3342 5207 c3 -24 21 -27 26 -4 2 8 -4 17 -13 21 -13 4 -16 1 -13
-17z"/>
<path d="M3530 5150 c0 -5 5 -10 10 -10 6 0 10 5 10 10 0 6 -4 10 -10 10 -5 0
-10 -4 -10 -10z"/>
<path d="M1188 4978 c-16 -5 -28 -16 -28 -24 0 -20 47 -18 76 5 37 29 9 41
-48 19z"/>
<path d="M1354 4965 c-9 -22 1 -29 15 -11 8 10 9 16 1 21 -5 3 -13 -1 -16 -10z"/>
<path d="M3965 4960 c-3 -5 1 -10 9 -10 9 0 16 5 16 10 0 6 -4 10 -9 10 -6 0
-13 -4 -16 -10z"/>
<path d="M1317 4938 c-14 -15 -15 -21 -5 -38 8 -13 19 -18 28 -14 8 4 27 9 43
12 38 6 34 23 -5 20 -24 -2 -33 2 -37 17 -6 20 -7 20 -24 3z"/>
<path d="M1211 4591 c-10 -6 -9 -10 3 -14 8 -3 18 -2 21 3 8 13 -9 20 -24 11z"/>
<path d="M1293 4585 c-9 -25 2 -27 27 -5 l23 20 -22 0 c-12 0 -24 -7 -28 -15z"/>
<path d="M2792 4381 c-10 -16 -11 -26 -3 -34 15 -15 23 -3 19 30 l-3 28 -13
-24z"/>
<path d="M2686 4365 c-3 -8 -1 -15 4 -15 6 0 10 7 10 15 0 8 -2 15 -4 15 -2 0
-6 -7 -10 -15z"/>
<path d="M3050 4342 c0 -10 -6 -24 -12 -30 -10 -10 -10 -17 0 -33 11 -17 11
-20 -5 -17 -10 2 -19 -4 -21 -14 -3 -14 2 -15 32 -8 39 9 41 8 26 -21 -8 -15
-7 -19 4 -19 20 0 56 39 56 61 0 25 -19 34 -27 13 -6 -16 -7 -15 -20 2 -7 10
-13 33 -13 51 0 18 -4 33 -10 33 -5 0 -10 -8 -10 -18z"/>
<path d="M2937 4316 c-6 -15 11 -36 29 -36 7 0 9 10 6 25 -5 27 -26 34 -35 11z"/>
<path d="M2486 4304 c-21 -20 -20 -33 2 -29 9 2 20 4 25 4 10 1 9 41 -2 41 -5
0 -17 -7 -25 -16z"/>
<path d="M3178 4263 c-25 -30 -49 -73 -41 -73 13 0 28 14 29 28 2 27 4 32 13
32 5 0 11 -10 14 -22 5 -18 8 -19 21 -8 20 16 20 27 2 46 -18 18 -20 18 -38
-3z"/>
<path d="M2357 4235 c-37 -26 -45 -39 -27 -50 17 -10 62 6 56 22 -3 7 1 16 9
19 15 6 21 34 7 34 -4 0 -24 -11 -45 -25z"/>
<path d="M3035 4210 c-4 -6 -10 -8 -15 -5 -5 3 -3 -8 3 -25 15 -40 28 -38 25
5 -2 38 -4 40 -13 25z"/>
<path d="M3335 4210 c-3 -5 -1 -10 4 -10 6 0 11 5 11 10 0 6 -2 10 -4 10 -3 0
-8 -4 -11 -10z"/>
<path d="M3231 4186 c-8 -9 -10 -27 -6 -49 6 -31 4 -36 -16 -39 -36 -5 -32
-21 10 -42 52 -24 88 -23 112 3 11 11 31 24 45 27 13 3 29 15 35 25 6 12 21
19 39 19 29 0 40 13 21 24 -10 7 -105 -4 -120 -14 -6 -3 -13 -17 -16 -30 -6
-30 -7 -31 -28 -16 -11 9 -18 28 -19 55 -1 22 -5 41 -9 41 -4 0 -14 2 -22 5
-7 3 -19 -1 -26 -9z"/>
<path d="M2413 4155 c-11 -24 -10 -25 23 -25 35 0 44 16 22 38 -18 18 -32 14
-45 -13z"/>
<path d="M2370 4160 c0 -5 4 -10 9 -10 6 0 13 5 16 10 3 6 -1 10 -9 10 -9 0
-16 -4 -16 -10z"/>
<path d="M3080 3851 c0 -3 9 -17 19 -30 17 -22 21 -23 55 -11 27 9 40 9 50 1
7 -6 21 -8 31 -5 15 6 16 4 5 -16 -13 -24 -2 -39 28 -40 14 0 16 26 2 35 -6 3
-7 17 -4 31 7 28 -18 43 -41 24 -12 -10 -15 -10 -15 1 0 10 -17 14 -65 15 -36
1 -65 -1 -65 -5z"/>
<path d="M2897 3843 c-4 -3 -7 -20 -7 -37 0 -35 15 -25 25 17 7 25 -3 36 -18
20z"/>
<path d="M2716 3701 c-3 -5 1 -11 9 -15 15 -6 29 7 18 18 -9 9 -21 8 -27 -3z"/>
<path d="M2765 3690 c3 -5 14 -10 23 -10 15 0 15 2 2 10 -20 13 -33 13 -25 0z"/>
<path d="M2247 3524 c-12 -12 4 -24 32 -24 15 0 32 -5 38 -11 6 -6 16 -8 22
-4 15 9 4 25 -13 19 -7 -3 -19 2 -26 11 -13 15 -41 20 -53 9z"/>
<path d="M2503 3520 c-13 -5 -23 -14 -23 -20 0 -7 6 -7 21 0 18 10 20 9 17
-13 -2 -20 20 -57 35 -57 12 0 13 41 1 69 -14 33 -17 35 -51 21z"/>
<path d="M2615 3520 c-3 -5 -1 -10 4 -10 6 0 11 5 11 10 0 6 -2 10 -4 10 -3 0
-8 -4 -11 -10z"/>
<path d="M2928 3293 c-9 -10 -19 -28 -22 -40 -4 -11 -13 -27 -21 -33 -8 -7
-15 -20 -15 -29 0 -9 19 13 41 47 39 62 48 90 17 55z"/>
<path d="M2241 3214 c-11 -13 -21 -26 -21 -29 0 -9 55 8 62 19 22 32 -14 41
-41 10z"/>
<path d="M3895 3220 c-3 -5 1 -10 9 -10 9 0 16 5 16 10 0 6 -4 10 -9 10 -6 0
-13 -4 -16 -10z"/>
<path d="M3915 3180 c4 -6 11 -8 16 -5 14 9 11 15 -7 15 -8 0 -12 -5 -9 -10z"/>
<path d="M5246 3151 c-4 -7 -5 -15 -2 -18 9 -9 19 4 14 18 -4 11 -6 11 -12 0z"/>
<path d="M3334 3123 c-5 -10 -21 -36 -34 -58 l-24 -40 27 28 c30 31 62 87 50
87 -5 0 -13 -8 -19 -17z"/>
<path d="M2155 3040 c3 -5 10 -10 16 -10 5 0 9 5 9 10 0 6 -7 10 -16 10 -8 0
-12 -4 -9 -10z"/>
<path d="M3267 3013 c-4 -3 -7 -11 -7 -17 0 -6 5 -5 12 2 6 6 9 14 7 17 -3 3
-9 2 -12 -2z"/>
<path d="M5200 2935 c0 -9 5 -15 11 -13 6 2 11 8 11 13 0 5 -5 11 -11 13 -6 2
-11 -4 -11 -13z"/>
<path d="M5165 2769 c-10 -15 3 -25 16 -12 7 7 7 13 1 17 -6 3 -14 1 -17 -5z"/>
<path d="M2518 2608 c-24 -6 -55 -29 -91 -67 -75 -79 -98 -150 -97 -310 0
-278 86 -460 261 -556 88 -47 162 -34 252 46 88 77 122 230 93 424 -14 95 -23
123 -67 210 -56 111 -153 229 -206 251 -37 16 -91 16 -145 2z m-13 -58 c-3 -5
-10 -10 -16 -10 -5 0 -9 5 -9 10 0 6 7 10 16 10 8 0 12 -4 9 -10z m140 -8 c81
-50 166 -169 201 -282 33 -103 46 -367 23 -439 -15 -46 -53 -98 -89 -120 -45
-27 -144 -15 -192 24 -40 32 -50 52 -20 40 45 -18 77 -16 105 5 44 35 60 76
65 177 10 187 -75 374 -182 404 -36 10 -42 8 -91 -25 -39 -25 -55 -43 -60 -66
-4 -16 -11 -30 -16 -30 -5 0 -7 10 -5 23 3 12 11 60 17 106 16 102 37 131 124
172 71 34 80 35 120 11z m-110 -272 c-3 -5 -12 -7 -20 -3 -21 7 -19 13 6 13
11 0 18 -4 14 -10z m124 -117 c32 -79 32 -241 1 -303 -26 -50 -30 -52 -73 -32
-44 19 -47 36 -9 56 22 11 32 27 44 73 15 57 17 151 3 206 -5 20 -4 27 8 27 8
0 20 -12 26 -27z"/>
<path d="M1200 2281 c-60 -22 -154 -120 -179 -187 -26 -68 -32 -175 -13 -228
8 -22 18 -57 23 -76 25 -111 42 -169 59 -198 11 -18 20 -39 20 -45 0 -7 14
-28 31 -47 17 -19 38 -45 46 -57 9 -13 24 -23 34 -23 23 0 24 -13 4 -30 -17
-14 -20 -30 -5 -30 6 0 10 7 10 15 0 18 12 19 28 3 16 -16 141 -11 188 8 64
27 125 102 151 185 23 79 21 282 -5 369 -49 164 -109 241 -248 315 -46 25 -87
44 -91 44 -5 -1 -28 -9 -53 -18z m20 -46 c-28 -16 -60 -20 -44 -6 8 9 36 18
59 19 6 1 -1 -5 -15 -13z m126 -28 c69 -40 129 -114 151 -185 10 -31 18 -61
19 -67 0 -5 3 -17 7 -25 7 -18 19 -124 23 -205 3 -60 -12 -155 -24 -155 -4 0
-7 48 -7 108 0 96 -3 113 -28 165 -15 32 -27 62 -27 66 0 14 -87 87 -124 105
-49 23 -95 20 -139 -9 -68 -47 -91 -126 -73 -255 11 -75 -6 -55 -34 40 -28 95
-32 239 -7 286 22 42 83 90 154 119 66 28 80 29 109 12z m133 -748 c-29 -22
-39 -24 -39 -5 0 8 12 23 28 34 24 18 27 19 31 5 2 -9 -7 -24 -20 -34z"/>
<path d="M3229 1670 c-109 -19 -186 -78 -239 -184 -22 -43 -30 -73 -30 -113 0
-29 5 -53 10 -53 6 0 10 5 10 10 0 26 20 6 30 -30 14 -52 65 -102 120 -119 24
-7 74 -12 112 -12 134 1 233 77 258 198 14 64 7 136 -15 170 -24 35 -189 149
-207 142 -2 -1 -24 -5 -49 -9z m163 -125 c43 -42 61 -104 52 -176 -9 -65 -39
-109 -94 -136 -47 -23 -144 -31 -155 -13 -3 5 -12 7 -20 3 -8 -3 -15 -1 -15 4
0 5 -10 9 -21 10 -26 2 -56 28 -65 57 -4 11 -15 32 -25 45 -25 31 -25 107 -1
143 22 34 102 98 123 98 8 0 19 4 25 9 15 16 76 17 120 3 22 -7 56 -28 76 -47z"/>
<path d="M3343 1489 c-15 -15 1 -39 26 -39 12 0 13 2 3 9 -8 4 -13 11 -12 15
4 17 -6 26 -17 15z"/>
<path d="M3346 1413 c-9 -9 -7 -53 2 -53 4 0 12 8 18 18 8 13 8 20 -1 29 -7 7
-16 9 -19 6z"/>
<path d="M3230 1350 c-9 -6 -10 -10 -3 -10 6 0 15 5 18 10 8 12 4 12 -15 0z"/>
<path d="M1984 1421 c-38 -16 -84 -79 -84 -114 0 -52 30 -77 92 -77 45 0 54 4
89 39 44 44 52 93 21 131 -19 24 -84 35 -118 21z m83 -57 c11 -28 -13 -61 -50
-68 -67 -12 -85 12 -42 58 28 30 82 36 92 10z"/>
<path d="M1341 1289 c-13 -5 -34 -10 -47 -11 -17 -2 -20 -5 -12 -15 6 -7 18
-13 27 -13 13 0 13 -2 2 -9 -9 -6 -4 -10 18 -13 17 -2 31 -1 31 4 0 4 5 8 10
8 6 0 10 -7 10 -15 0 -11 10 -14 43 -12 23 2 54 0 70 -4 22 -6 27 -4 27 9 0
13 -11 17 -47 19 -26 1 -53 -3 -61 -9 -10 -9 -16 -8 -23 3 -5 8 -9 17 -9 22 0
10 18 9 22 -2 2 -5 16 1 33 14 33 27 28 44 -10 27 -15 -7 -27 -8 -30 -2 -7 12
-22 12 -54 -1z m32 -24 c-5 -16 -33 -15 -33 1 0 7 9 12 19 11 10 0 17 -6 14
-12z"/>
<path d="M1498 1283 c7 -3 16 -2 19 1 4 3 -2 6 -13 5 -11 0 -14 -3 -6 -6z"/>
<path d="M1222 1223 c-6 -2 -10 -8 -8 -12 7 -10 66 -1 66 10 0 10 -36 11 -58
2z"/>
<path d="M1325 1200 c-3 -5 1 -10 9 -10 9 0 16 5 16 10 0 6 -4 10 -9 10 -6 0
-13 -4 -16 -10z"/>
<path d="M4036 981 c-26 -28 -19 -34 31 -27 43 6 45 5 31 -11 -9 -10 -13 -24
-11 -30 3 -7 0 -13 -6 -13 -6 0 -11 -5 -11 -11 0 -6 14 -9 32 -7 24 2 32 8 33
26 1 12 -2 22 -7 22 -5 0 -6 11 -2 25 5 21 2 25 -23 30 -15 4 -33 8 -40 10 -6
2 -18 -4 -27 -14z"/>
<path d="M4025 890 c-3 -5 3 -10 15 -10 12 0 18 5 15 10 -3 6 -10 10 -15 10
-5 0 -12 -4 -15 -10z"/>
<path d="M3970 762 c0 -13 -67 -45 -79 -38 -6 4 -11 0 -11 -10 0 -11 6 -15 20
-11 11 3 23 0 26 -5 4 -7 10 -4 16 5 5 9 15 14 24 10 10 -4 17 2 21 16 3 11
10 21 15 21 5 0 6 -4 3 -10 -3 -5 -1 -10 4 -10 14 0 14 13 -1 28 -13 13 -38
16 -38 4z"/>
<path d="M3830 730 c-9 -6 -10 -10 -3 -10 6 0 15 5 18 10 8 12 4 12 -15 0z"/>
<path d="M3864 670 c1 -31 10 -39 19 -17 3 7 -1 20 -8 30 -11 15 -12 13 -11
-13z"/>
<path d="M3735 640 c3 -5 8 -10 11 -10 2 0 4 5 4 10 0 6 -5 10 -11 10 -5 0 -7
-4 -4 -10z"/>
<path d="M1630 630 c-8 -5 -12 -11 -9 -14 7 -8 49 5 49 15 0 12 -21 11 -40 -1z"/>
<path d="M3460 622 c-8 -3 -19 -11 -23 -18 -4 -8 -25 -15 -45 -15 -20 -1 -29
-3 -19 -6 9 -2 17 -10 17 -18 0 -7 7 -16 16 -19 22 -8 26 -8 19 5 -7 10 25 44
47 51 6 2 9 9 7 15 -2 5 -11 8 -19 5z"/>
<path d="M3670 615 c0 -8 2 -15 4 -15 2 0 6 7 10 15 3 8 1 15 -4 15 -6 0 -10
-7 -10 -15z"/>
<path d="M3468 568 c-26 -27 -36 -48 -22 -48 16 0 44 23 44 35 0 18 12 19 28
3 9 -9 13 -7 18 6 5 12 10 14 19 6 10 -8 15 -8 20 0 9 15 7 16 -40 22 -35 5
-44 1 -67 -24z"/>
<path d="M3347 542 c-3 -4 -1 -16 3 -26 4 -14 9 -16 14 -8 4 7 4 12 -1 12 -4
0 -2 4 5 9 11 7 11 9 -2 14 -8 3 -17 3 -19 -1z"/>
<path d="M3135 530 c-17 -7 -16 -9 10 -9 17 0 37 4 45 9 12 8 10 10 -10 9 -14
0 -34 -4 -45 -9z"/>
<path d="M3000 514 c-11 -12 -5 -13 36 -8 72 10 87 22 27 22 -33 1 -56 -4 -63
-14z"/>
<path d="M3070 480 c0 -5 5 -10 10 -10 6 0 10 5 10 10 0 6 -4 10 -10 10 -5 0
-10 -4 -10 -10z"/>
<path d="M3220 458 c0 -19 2 -20 10 -8 13 19 13 30 0 30 -5 0 -10 -10 -10 -22z"/>
<path d="M1480 5120 c0 -5 9 -10 20 -10 11 0 20 5 20 10 0 6 -9 10 -20 10 -11
0 -20 -4 -20 -10z"/>
<path d="M5797 4186 c-5 -13 10 -36 24 -36 9 0 -1 39 -11 45 -4 3 -10 -1 -13
-9z"/>
<path d="M5690 4180 c0 -5 7 -10 15 -10 8 0 15 5 15 10 0 6 -7 10 -15 10 -8 0
-15 -4 -15 -10z"/>
<path d="M5780 4100 c-20 -6 -21 -8 -5 -8 11 0 34 4 50 8 27 7 27 8 5 8 -14 0
-36 -4 -50 -8z"/>
<path d="M5815 4040 c-3 -5 1 -10 9 -10 9 0 16 5 16 10 0 6 -4 10 -9 10 -6 0
-13 -4 -16 -10z"/>
<path d="M5626 3395 c3 -7 17 -10 35 -7 43 6 43 17 -1 18 -26 1 -37 -2 -34
-11z"/>
<path d="M5650 3370 c0 -5 5 -10 10 -10 6 0 10 5 10 10 0 6 -4 10 -10 10 -5 0
-10 -4 -10 -10z"/>
<path d="M5650 3269 c0 -5 5 -7 10 -4 6 3 10 8 10 11 0 2 -4 4 -10 4 -5 0 -10
-5 -10 -11z"/>
<path d="M5771 3249 c5 -11 14 -17 20 -14 15 10 10 22 -11 28 -17 4 -18 2 -9
-14z"/>
<path d="M5700 3000 c0 -5 9 -10 20 -10 11 0 20 5 20 10 0 6 -9 10 -20 10 -11
0 -20 -4 -20 -10z"/>
<path d="M5730 2850 c-13 -8 -12 -10 3 -10 9 0 17 5 17 10 0 12 -1 12 -20 0z"/>
<path d="M5655 2840 c-3 -5 -2 -10 4 -10 5 0 13 5 16 10 3 6 2 10 -4 10 -5 0
-13 -4 -16 -10z"/>
<path d="M5745 2700 c-3 -5 -1 -10 4 -10 6 0 11 5 11 10 0 6 -2 10 -4 10 -3 0
-8 -4 -11 -10z"/>
<path d="M5600 2531 c0 -6 5 -11 11 -11 8 0 8 -4 0 -14 -9 -11 -6 -13 15 -10
31 3 35 6 26 20 -10 16 -52 28 -52 15z"/>
<path d="M5460 2356 c0 -2 7 -7 16 -10 8 -3 12 -2 9 4 -6 10 -25 14 -25 6z"/>
<path d="M5412 2083 c-6 -2 -10 -8 -7 -13 6 -10 45 -1 45 11 0 10 -17 11 -38
2z"/>
<path d="M5310 2055 c-16 -19 -1 -19 24 0 16 12 17 15 4 15 -8 0 -21 -7 -28
-15z"/>
<path d="M5297 2009 c13 -12 46 -15 50 -3 2 6 -9 11 -27 11 -17 0 -27 -4 -23
-8z"/>
<path d="M5395 1910 c-13 -6 -15 -9 -5 -9 8 0 22 4 30 9 18 12 2 12 -25 0z"/>
<path d="M5350 1901 c0 -6 -7 -8 -15 -5 -9 4 -16 -3 -21 -21 -8 -31 10 -48 40
-39 10 4 22 0 27 -7 7 -11 9 -10 9 3 0 12 -11 19 -35 24 -40 7 -47 24 -10 24
25 0 33 14 15 25 -5 3 -10 2 -10 -4z"/>
<path d="M5250 1805 c-7 -9 -11 -18 -8 -20 3 -3 11 1 18 10 7 9 11 18 8 20 -3
3 -11 -1 -18 -10z"/>
<path d="M5210 1785 c0 -8 5 -15 10 -15 6 0 10 7 10 15 0 8 -4 15 -10 15 -5 0
-10 -7 -10 -15z"/>
<path d="M5070 1730 c-31 -10 -27 -11 33 -13 26 -1 46 2 44 7 -4 13 -46 16
-77 6z"/>
<path d="M5180 1730 c0 -5 7 -10 16 -10 8 0 12 5 9 10 -3 6 -10 10 -16 10 -5
0 -9 -4 -9 -10z"/>
<path d="M5200 1664 c0 -8 5 -12 10 -9 6 4 8 11 5 16 -9 14 -15 11 -15 -7z"/>
<path d="M5235 1670 c-3 -5 -1 -10 4 -10 6 0 11 5 11 10 0 6 -2 10 -4 10 -3 0
-8 -4 -11 -10z"/>
<path d="M5265 1650 c3 -5 11 -10 16 -10 6 0 7 5 4 10 -3 6 -11 10 -16 10 -6
0 -7 -4 -4 -10z"/>
<path d="M5056 1635 c4 -8 11 -15 16 -15 6 0 5 6 -2 15 -7 8 -14 15 -16 15 -2
0 -1 -7 2 -15z"/>
<path d="M5081 1589 c-13 -5 -21 -12 -18 -15 9 -9 57 5 57 16 0 12 -7 12 -39
-1z"/>
<path d="M4965 1450 c-3 -5 3 -10 15 -10 12 0 18 5 15 10 -3 6 -10 10 -15 10
-5 0 -12 -4 -15 -10z"/>
<path d="M4830 1360 c0 -5 4 -10 9 -10 6 0 13 5 16 10 3 6 -1 10 -9 10 -9 0
-16 -4 -16 -10z"/>
<path d="M4786 1342 c-2 -4 -1 -14 5 -22 7 -12 9 -10 9 8 0 23 -5 28 -14 14z"/>
<path d="M4666 1225 c-19 -15 -19 -15 2 -15 13 0 22 6 22 15 0 18 0 18 -24 0z"/>
<path d="M4660 1116 c0 -2 11 -6 25 -8 14 -3 25 -1 25 3 0 5 -11 9 -25 9 -14
0 -25 -2 -25 -4z"/>
<path d="M1914 3959 c-7 -12 12 -29 34 -29 19 0 14 18 -7 30 -14 7 -22 7 -27
-1z"/>
<path d="M1417 3803 c-4 -3 -7 -15 -7 -26 0 -19 1 -19 20 -2 11 10 17 22 14
26 -6 11 -18 12 -27 2z"/>
<path d="M1670 3729 c0 -11 4 -18 10 -14 5 3 7 12 3 20 -7 21 -13 19 -13 -6z"/>
<path d="M2010 3731 c0 -5 5 -13 10 -16 6 -3 10 -2 10 4 0 5 -4 13 -10 16 -5
3 -10 2 -10 -4z"/>
<path d="M1110 3560 c0 -5 5 -10 10 -10 6 0 10 5 10 10 0 6 -4 10 -10 10 -5 0
-10 -4 -10 -10z"/>
<path d="M1072 3528 c-7 -7 -12 -17 -12 -23 0 -5 -9 -16 -21 -23 -12 -7 -19
-15 -17 -18 8 -7 69 28 75 43 8 20 -10 36 -25 21z"/>
<path d="M1000 3515 c0 -8 -6 -15 -14 -15 -18 0 -33 -19 -41 -53 -5 -17 -3
-27 4 -27 13 0 61 51 61 66 0 7 7 15 16 18 8 3 12 10 9 16 -10 15 -35 12 -35
-5z"/>
<path d="M875 3480 c-3 -5 -1 -18 4 -27 10 -17 10 -17 11 0 0 9 5 17 11 17 5
0 7 5 4 10 -8 13 -22 13 -30 0z"/>
<path d="M820 3438 c0 -11 38 -10 44 1 3 5 -5 8 -19 7 -14 0 -25 -4 -25 -8z"/>
<path d="M1005 3200 c3 -5 8 -10 11 -10 2 0 4 5 4 10 0 6 -5 10 -11 10 -5 0
-7 -4 -4 -10z"/>
<path d="M1077 3093 c-14 -13 -6 -33 13 -33 11 0 20 4 20 9 0 13 -26 32 -33
24z"/>
<path d="M3724 3585 c-19 -14 -18 -14 4 -15 13 0 22 6 22 15 0 19 -1 19 -26 0z"/>
<path d="M3705 3542 c-7 -20 7 -34 28 -27 26 11 28 33 2 37 -15 3 -26 0 -30
-10z"/>
<path d="M2500 2985 c0 -8 5 -15 10 -15 6 0 10 7 10 15 0 8 -4 15 -10 15 -5 0
-10 -7 -10 -15z"/>
<path d="M1462 2854 c-14 -16 -5 -18 17 -5 7 5 9 11 5 14 -5 3 -15 -1 -22 -9z"/>
<path d="M401 1364 c0 -11 3 -14 6 -6 3 7 2 16 -1 19 -3 4 -6 -2 -5 -13z"/>
<path d="M505 1328 c3 -7 17 -14 31 -14 23 -2 24 -1 7 12 -23 17 -44 18 -38 2z"/>
<path d="M836 1175 c-11 -8 -15 -15 -9 -15 6 0 16 7 23 15 16 19 11 19 -14 0z"/>
<path d="M1068 423 c7 -3 16 -2 19 1 4 3 -2 6 -13 5 -11 0 -14 -3 -6 -6z"/>
<path d="M1083 393 c9 -2 23 -2 30 0 6 3 -1 5 -18 5 -16 0 -22 -2 -12 -5z"/>
</g>
</svg>
